<svg width="428" height="380" viewBox="0 0 428 380" fill="none" xmlns="http://www.w3.org/2000/svg">
<rect x="16.4556" y="31.9102" width="366.006" height="159.655" fill="#FF2B2B"/>
<path d="M401.197 227.036C380.046 225.404 358.995 223.697 338.043 221.913C317.267 220.156 296.327 218.283 275.223 216.292C278.817 181.794 282.551 147.594 286.426 113.692C290.324 79.6089 293.818 45.1881 296.907 10.4291C308.72 12.0792 320.381 13.5221 331.889 14.7579C343.397 15.9936 355.017 17.063 366.748 17.9663C363.079 30.9783 359.487 44.0939 355.971 57.3131C352.654 70.3798 349.677 83.591 347.041 96.9468C344.862 108.171 342.77 119.409 340.767 130.661C338.963 141.76 337.147 152.949 335.32 164.228C346.887 166.39 358.301 168.346 369.563 170.094C381.001 171.869 392.416 173.824 403.807 175.96L401.197 227.036Z" fill="white" stroke="#FF2B2B" stroke-width="7.66376"/>
<path d="M110.646 5.12955C110.884 16.1185 111.613 27.0507 112.832 37.9262C114.034 48.6231 114.991 59.3484 115.703 70.102L88.3723 72.1766C88.8146 78.4464 89.2483 84.6269 89.6732 90.7181C90.2617 96.7904 90.8589 102.952 91.4647 109.203C92.1917 116.704 92.91 124.116 93.6197 131.438C94.4756 138.563 95.3488 145.867 96.2393 153.349L121.31 150.994C121.485 156.211 121.832 161.498 122.351 166.856C122.871 172.214 123.39 177.572 123.909 182.93C124.342 187.395 124.856 191.85 125.453 196.296C126.212 200.724 127.209 205.033 128.442 209.225L40.5408 221.008C39.6927 212.256 38.7801 203.693 37.8031 195.318C36.8087 186.764 35.6422 178.14 34.3035 169.445L50.2209 167.335C47.7763 150.642 45.1854 134.145 42.4483 117.847C39.8748 101.529 37.2108 85.1318 34.4564 68.6545L10.8429 68.1324C9.78889 60.6692 8.74353 53.2952 7.70681 46.0105C6.81631 38.5283 5.84405 31.0556 4.79003 23.5923C22.5447 20.8182 40.1273 17.9738 57.5376 15.059C75.0942 11.9467 92.7969 8.63686 110.646 5.12955Z" fill="white" stroke="#FF2B2B" stroke-width="8.48904"/>
<path d="M216.881 12.4457C220.649 12.5546 224.718 12.7576 229.086 13.0545C233.581 13.36 238.063 14.0151 242.531 15.017C247.165 15.8568 251.572 17.0414 255.749 18.5781L255.748 18.578C259.885 20.0514 263.633 21.9246 266.965 24.2169L267.628 24.6826L267.637 24.6897L267.646 24.6958C275.947 30.7247 282.2 38.6804 286.403 48.4701C290.749 58.0621 292.791 68.219 292.533 78.8959C292.18 93.4516 287.808 105.233 279.042 113.766C271.604 121.008 262.287 125.191 251.291 126.445C264.948 153.344 276.866 180.798 287.042 208.809L288.815 213.687L283.633 213.673L215.819 213.488L212.409 213.479L212.184 210.075C211.286 196.475 209.751 183.98 207.586 172.584C205.572 161.984 202.705 150.829 198.982 139.116C194.831 139.295 190.679 139.53 186.525 139.822C182.676 140.104 178.828 140.334 174.981 140.516L174.76 194.641L174.746 198.144L171.245 198.244C162.344 198.498 153.448 198.496 144.559 198.239C140.027 198.108 135.572 197.894 131.195 197.596L131.189 197.596C126.92 197.299 122.581 196.828 118.174 196.183L114.74 195.681L115.065 192.228C116.524 176.724 117.903 161.301 119.203 145.961C120.503 130.5 121.416 115.114 121.942 99.8016L121.942 99.7772C123.071 72.3935 124.432 45.0161 126.026 17.6459L126.218 14.3357L129.532 14.239C144.082 13.8149 158.557 13.3043 172.956 12.707L172.958 12.707C187.611 12.1101 202.253 12.0229 216.881 12.4457ZM211.125 48.7258C205.068 48.5507 199.084 48.7083 193.171 49.1984L192.96 49.2158L192.75 49.2088C189.379 49.0971 187.451 49.5322 186.317 50.0984C185.33 50.5912 184.687 51.3069 184.17 52.5579C183.59 53.9605 183.235 55.8784 182.915 58.6198C182.616 61.1792 182.337 64.5901 181.834 68.1237C180.904 74.6563 181.361 81.6269 182.087 87.0586C182.447 89.754 182.867 92.0265 183.196 93.6177C183.223 93.7482 183.25 93.8742 183.275 93.9952C185.839 94.6159 188.505 95.0969 191.277 95.4301C194.878 95.8629 198.401 96.1284 201.845 96.228C203.286 96.2696 205.448 96.2519 208.372 96.1685L208.383 96.1678C211.349 96.0917 214.322 95.8538 217.3 95.4535L217.328 95.4504C220.406 95.0605 223.15 94.5089 225.572 93.811C227.937 93.0169 229.092 92.1577 229.603 91.5193C229.628 91.4697 229.695 91.3273 229.788 91.0498C229.929 90.6253 230.084 90.0222 230.241 89.2077C230.565 87.3745 230.75 85.5408 230.794 83.7058L230.797 83.5779L230.809 83.4512C231.01 81.3365 231.133 79.3113 231.18 77.3755L231.183 77.2369L231.197 77.0995C231.401 75.0764 231.5 73.7651 231.517 73.0729C231.547 71.8376 231.518 70.0675 231.422 67.7272L231.417 67.6088L231.42 67.4897C231.473 65.2829 231.382 63.0704 231.147 60.8512L231.144 60.8199C230.912 58.446 230.536 56.3646 230.033 54.5597L230.023 54.5222L230.013 54.4838C229.555 52.6914 229.005 51.7812 228.612 51.3581C228.554 51.3197 228.418 51.2373 228.165 51.1312C227.781 50.9706 227.224 50.7947 226.453 50.6314C224.742 50.2689 222.86 49.9752 220.804 49.7549L220.644 49.7376L220.485 49.7066C218.677 49.3491 216.871 49.1449 215.064 49.0927L214.899 49.0879L214.735 49.0685C212.883 48.8459 211.716 48.7429 211.125 48.7258Z" fill="white" stroke="#FF2B2B" stroke-width="7.27197"/>
<path d="M71.2454 336.982C71.2454 338.173 71.1806 339.607 71.0511 341.285C70.9647 342.962 70.792 344.667 70.5329 346.399C70.317 348.131 69.9932 349.754 69.5613 351.27C69.1295 352.785 68.5898 353.976 67.9421 354.842C67.683 355.221 66.8409 355.599 65.416 355.978C64.0342 356.303 62.3501 356.655 60.3638 357.034C58.4207 357.358 56.3264 357.683 54.081 358.008C51.8355 358.333 49.6981 358.63 47.6686 358.901C45.6823 359.117 43.955 359.307 42.4869 359.469C41.0187 359.631 40.0903 359.713 39.7017 359.713L39.1835 376.598C37.8449 376.706 36.5279 376.734 35.2325 376.679C33.937 376.571 32.62 376.517 31.2814 376.517C30.4178 376.517 29.5542 376.544 28.6905 376.598C27.8269 376.652 26.9633 376.734 26.0997 376.842C26.0997 371.754 26.0997 366.721 26.0997 361.742C26.0997 356.763 26.0133 351.73 25.8406 346.643C25.711 342.042 25.5815 337.469 25.452 332.923C25.3656 328.377 25.2792 323.804 25.1929 319.203C29.6405 318.825 34.1097 318.365 38.6006 317.823C43.1346 317.228 47.647 316.93 52.1378 316.93C52.9151 316.93 54.1457 317.039 55.8298 317.255C57.5138 317.417 59.2843 317.715 61.1411 318.148C62.9978 318.527 64.7035 319.014 66.258 319.609C67.8557 320.205 68.9136 320.881 69.4318 321.639C69.7773 322.126 70.0579 323.073 70.2738 324.48C70.5329 325.887 70.7272 327.403 70.8568 329.026C70.9863 330.596 71.0727 332.138 71.1159 333.654C71.2022 335.169 71.2454 336.278 71.2454 336.982ZM53.1094 336.414C53.1094 335.927 53.0878 335.304 53.0446 334.547C53.0014 333.789 52.9151 333.058 52.7855 332.355C52.6992 331.597 52.548 330.921 52.3321 330.325C52.1162 329.676 51.8355 329.216 51.4901 328.945C51.2742 328.783 50.9287 328.647 50.4538 328.539C49.9788 328.431 49.4822 328.35 48.964 328.296C48.4458 328.242 47.9493 328.214 47.4743 328.214C46.9993 328.16 46.6538 328.133 46.4379 328.133C44.8402 328.133 43.2425 328.242 41.6448 328.458C40.0471 328.675 38.4278 328.945 36.787 329.27C36.9165 330.893 36.9813 332.49 36.9813 334.06C37.0245 335.629 37.0461 337.198 37.0461 338.768C37.0461 341.312 37.1108 343.882 37.2404 346.48C37.8017 346.48 38.7733 346.453 40.1551 346.399C41.5369 346.291 42.9834 346.155 44.4948 345.993C46.0061 345.777 47.4311 345.506 48.7697 345.181C50.1083 344.802 51.0151 344.315 51.4901 343.72C52.2674 342.8 52.7208 341.691 52.8503 340.392C53.023 339.039 53.1094 337.713 53.1094 336.414Z" fill="#FF2B2B"/>
<path d="M132.843 343.071C132.843 343.774 132.843 344.478 132.843 345.181C132.843 345.831 132.822 346.48 132.778 347.13C132.735 347.671 132.67 348.618 132.584 349.971C132.541 351.324 132.454 352.893 132.325 354.679C132.239 356.411 132.109 358.251 131.936 360.2C131.807 362.148 131.634 363.961 131.418 365.639C131.245 367.262 131.051 368.67 130.835 369.86C130.619 371.051 130.403 371.782 130.187 372.052C128.892 373.676 127.338 374.893 125.524 375.705C123.754 376.463 121.897 376.977 119.954 377.248C118.01 377.518 116.067 377.627 114.124 377.572C112.181 377.518 110.367 377.491 108.683 377.491C108.122 377.491 107.172 377.491 105.833 377.491C104.495 377.437 102.962 377.383 101.235 377.329C99.5506 377.275 97.7801 377.194 95.9233 377.085C94.0666 376.923 92.3177 376.734 90.6769 376.517C89.0792 376.246 87.6758 375.949 86.4667 375.624C85.3008 375.245 84.5667 374.785 84.2645 374.244C83.919 373.649 83.6168 372.999 83.3577 372.296C83.0986 371.592 82.8611 370.916 82.6452 370.266C82.0838 368.48 81.5657 366.586 81.0907 364.583C80.6157 362.527 80.2055 360.443 79.86 358.333C79.5577 356.168 79.2987 354.03 79.0828 351.919C78.91 349.809 78.8237 347.806 78.8237 345.912C78.8237 344.884 78.8884 343.558 79.018 341.934C79.1475 340.256 79.3203 338.47 79.5362 336.576C79.7521 334.628 80.0111 332.652 80.3134 330.65C80.6157 328.647 80.9395 326.78 81.285 325.048C81.6736 323.317 82.0838 321.828 82.5156 320.583C82.9475 319.285 83.4225 318.419 83.9406 317.986C84.3724 317.607 85.1713 317.255 86.3372 316.93C87.5031 316.606 88.8633 316.335 90.4178 316.119C91.9723 315.848 93.6348 315.631 95.4052 315.469C97.1756 315.253 98.8597 315.09 100.457 314.982C102.055 314.82 103.502 314.711 104.797 314.657C106.092 314.603 107.042 314.576 107.647 314.576C108.467 314.576 109.569 314.63 110.95 314.738C112.375 314.847 113.908 315.036 115.549 315.307C117.19 315.523 118.852 315.821 120.537 316.2C122.221 316.524 123.775 316.93 125.2 317.417C126.668 317.905 127.92 318.446 128.957 319.041C129.993 319.636 130.641 320.286 130.9 320.989C131.116 321.585 131.31 322.451 131.483 323.587C131.699 324.67 131.872 325.914 132.001 327.321C132.131 328.729 132.239 330.217 132.325 331.786C132.454 333.356 132.541 334.871 132.584 336.333C132.67 337.74 132.735 339.039 132.778 340.229C132.822 341.42 132.843 342.367 132.843 343.071ZM121.249 345.75C121.249 344.667 121.206 343.531 121.119 342.34C121.033 341.095 120.752 340.013 120.277 339.093C119.932 338.443 119.09 337.929 117.751 337.55C116.456 337.171 115.009 336.901 113.412 336.738C111.857 336.576 110.346 336.495 108.878 336.495C107.409 336.441 106.373 336.414 105.769 336.414C105.294 336.414 104.452 336.468 103.243 336.576C102.077 336.684 100.824 336.874 99.4858 337.144C98.1904 337.361 96.9813 337.659 95.8586 338.037C94.7359 338.362 94.045 338.768 93.7859 339.255C93.5268 339.634 93.3109 340.365 93.1382 341.447C93.0086 342.475 92.8791 343.612 92.7495 344.857C92.6632 346.047 92.5984 347.211 92.5552 348.347C92.5121 349.43 92.4905 350.214 92.4905 350.702C92.4905 351.135 92.4905 351.784 92.4905 352.65C92.5336 353.516 92.5984 354.409 92.6848 355.329C92.7711 356.249 92.8575 357.115 92.9439 357.927C93.0734 358.738 93.2461 359.334 93.462 359.713C93.5916 359.983 93.9802 360.227 94.6279 360.443C95.2756 360.66 96.0529 360.876 96.9597 361.093C97.9097 361.255 98.9028 361.39 99.9392 361.499C100.976 361.607 101.969 361.715 102.919 361.823C103.912 361.877 104.775 361.932 105.51 361.986C106.287 361.986 106.827 361.986 107.129 361.986C107.647 361.986 108.532 361.932 109.784 361.823C111.08 361.715 112.418 361.553 113.8 361.336C115.225 361.066 116.521 360.768 117.687 360.443C118.896 360.064 119.673 359.631 120.018 359.144C120.277 358.766 120.493 357.981 120.666 356.79C120.839 355.545 120.968 354.219 121.055 352.812C121.141 351.351 121.184 349.971 121.184 348.672C121.227 347.319 121.249 346.345 121.249 345.75Z" fill="#FF2B2B"/>
<path d="M187.834 348.591C187.834 350.16 187.834 351.811 187.834 353.543C187.834 355.275 187.683 356.925 187.381 358.495C187.165 359.686 186.927 360.741 186.668 361.661C186.409 362.527 186.085 363.339 185.697 364.096C185.308 364.8 184.833 365.476 184.272 366.126C183.71 366.721 183.019 367.317 182.199 367.912C181.94 368.128 181.249 368.426 180.126 368.805C179.004 369.13 177.6 369.536 175.916 370.023C174.275 370.51 172.418 371.024 170.346 371.565C168.316 372.106 166.222 372.647 164.063 373.189C161.947 373.676 159.831 374.19 157.715 374.731C155.643 375.218 153.743 375.678 152.015 376.111C150.331 376.49 148.885 376.842 147.676 377.167C146.51 377.437 145.733 377.599 145.344 377.654C144.61 367.75 143.919 357.927 143.271 348.185C142.624 338.443 142.127 328.593 141.782 318.635C145.409 318.798 149.014 318.987 152.598 319.203C156.182 319.366 159.81 319.609 163.48 319.934C164.43 320.042 165.812 320.178 167.625 320.34C169.482 320.502 171.404 320.746 173.39 321.071C175.376 321.341 177.233 321.693 178.96 322.126C180.731 322.559 182.005 323.1 182.782 323.75C183.775 324.67 184.66 325.914 185.438 327.484C186.215 329.053 186.776 330.596 187.122 332.111C187.294 332.815 187.424 333.924 187.51 335.44C187.597 336.901 187.661 338.47 187.705 340.148C187.748 341.826 187.769 343.449 187.769 345.019C187.813 346.588 187.834 347.779 187.834 348.591ZM171.706 349.646C171.706 349.051 171.684 348.429 171.641 347.779C171.641 347.075 171.62 346.426 171.576 345.831C171.49 344.965 171.361 344.072 171.188 343.152C171.058 342.178 170.864 341.258 170.605 340.392C170.346 339.472 170.022 338.633 169.633 337.875C169.245 337.063 168.77 336.36 168.208 335.764C167.906 335.44 167.172 335.196 166.006 335.034C164.84 334.817 163.566 334.682 162.185 334.628C160.803 334.52 159.507 334.465 158.298 334.465C157.089 334.411 156.312 334.384 155.967 334.384H153.311C153.656 338.606 153.959 342.773 154.218 346.886C154.52 350.945 154.779 355.085 154.995 359.307C155.815 359.253 156.981 359.117 158.493 358.901C160.047 358.63 161.623 358.306 163.221 357.927C164.819 357.494 166.308 356.98 167.69 356.384C169.072 355.735 170.065 354.977 170.67 354.111C171.145 353.462 171.425 352.785 171.512 352.082C171.641 351.324 171.706 350.512 171.706 349.646Z" fill="#FF2B2B"/>
<path d="M237.967 358.495L237.902 371.159C235.916 371.646 233.951 372.106 232.008 372.539C230.065 372.972 228.1 373.351 226.114 373.676C224.041 374 221.969 374.298 219.896 374.569C217.823 374.839 215.751 374.975 213.678 374.975C213.073 374.975 212.188 374.948 211.022 374.893C209.856 374.839 208.647 374.731 207.395 374.569C206.143 374.406 204.955 374.217 203.833 374C202.71 373.73 201.89 373.405 201.371 373.026C200.896 372.647 200.443 372.214 200.011 371.727C199.579 371.186 199.191 370.645 198.845 370.104C197.938 368.697 197.183 367.154 196.578 365.476C195.974 363.799 195.499 362.067 195.153 360.281C194.808 358.495 194.549 356.682 194.376 354.842C194.246 353.002 194.182 351.189 194.182 349.403C194.182 347.238 194.268 344.992 194.441 342.665C194.657 340.337 194.981 338.037 195.412 335.764C195.844 333.491 196.406 331.299 197.096 329.189C197.831 327.078 198.716 325.13 199.752 323.344C200.054 322.857 200.443 322.261 200.918 321.558C201.393 320.854 201.868 320.34 202.343 320.015C203.509 319.203 204.804 318.527 206.229 317.986C207.697 317.444 209.209 317.039 210.763 316.768C212.318 316.443 213.851 316.227 215.362 316.119C216.917 315.956 218.341 315.875 219.637 315.875C222.098 315.875 224.56 316.064 227.021 316.443C229.482 316.768 231.879 317.363 234.211 318.229C234.124 319.691 234.059 321.179 234.016 322.694C233.973 324.155 233.951 325.617 233.951 327.078C233.951 330.596 234.016 334.141 234.146 337.713C232.203 336.793 230.173 336.143 228.057 335.764C225.941 335.331 223.847 335.115 221.774 335.115C221.343 335.115 220.716 335.169 219.896 335.277C219.076 335.331 218.147 335.44 217.111 335.602C216.074 335.71 214.995 335.873 213.872 336.089C212.793 336.306 211.778 336.576 210.828 336.901C209.878 337.226 209.036 337.604 208.302 338.037C207.611 338.47 207.158 338.93 206.942 339.417C206.769 339.85 206.618 340.473 206.488 341.285C206.402 342.042 206.316 342.854 206.229 343.72C206.186 344.586 206.143 345.425 206.1 346.237C206.1 347.048 206.1 347.698 206.1 348.185C206.1 348.672 206.143 349.646 206.229 351.107C206.316 352.569 206.424 354.138 206.553 355.816C206.683 357.44 206.834 358.928 207.006 360.281C207.222 361.634 207.438 362.419 207.654 362.635C207.87 362.798 208.216 362.906 208.691 362.96C209.209 362.96 209.554 362.96 209.727 362.96C211.843 362.96 214.11 362.825 216.528 362.554C218.946 362.283 221.386 361.932 223.847 361.499C226.352 361.012 228.813 360.524 231.231 360.037C233.649 359.496 235.895 358.982 237.967 358.495Z" fill="#FF2B2B"/>
<path d="M286.092 377.491L276.247 379.358C275.556 376.598 274.865 373.865 274.175 371.159C273.484 368.399 272.814 365.639 272.167 362.879L256.233 363.609L254.225 374.406H244.25C244.855 365.206 245.481 356.06 246.128 346.967C246.776 337.875 247.402 328.756 248.007 319.609C251.116 318.96 254.203 318.419 257.269 317.986C260.378 317.553 263.509 317.336 266.661 317.336C270.504 317.336 274.347 317.417 278.19 317.58C278.881 323.208 279.551 328.837 280.198 334.465C280.889 340.04 281.602 345.641 282.336 351.27C282.854 355.708 283.415 360.091 284.02 364.421C284.668 368.751 285.358 373.107 286.092 377.491ZM269.9 351.838C269.856 351.351 269.748 350.458 269.576 349.159C269.403 347.806 269.209 346.399 268.993 344.938C268.777 343.422 268.518 342.069 268.216 340.879C267.956 339.634 267.697 338.903 267.438 338.687C267.352 338.633 267.136 338.579 266.791 338.524C266.488 338.47 266.143 338.416 265.754 338.362C265.409 338.308 265.063 338.281 264.718 338.281C264.372 338.281 264.135 338.281 264.005 338.281C263.789 338.281 263.487 338.281 263.099 338.281C262.753 338.281 262.365 338.308 261.933 338.362C261.544 338.362 261.155 338.416 260.767 338.524C260.421 338.633 260.184 338.768 260.054 338.93C259.968 338.984 259.86 339.336 259.73 339.986C259.601 340.635 259.428 341.447 259.212 342.421C259.04 343.341 258.845 344.342 258.629 345.425C258.457 346.507 258.284 347.536 258.111 348.51C257.938 349.484 257.787 350.323 257.658 351.026C257.571 351.73 257.507 352.136 257.463 352.244L269.9 351.838Z" fill="#FF2B2B"/>
<path d="M341.472 363.447C341.472 366.045 340.976 368.155 339.982 369.779C338.989 371.349 337.586 372.62 335.772 373.595C334.261 374.406 332.361 375.056 330.072 375.543C327.784 375.976 325.409 376.301 322.947 376.517C320.486 376.679 318.068 376.788 315.693 376.842C313.318 376.896 311.332 376.923 309.734 376.923C307.014 376.923 304.315 376.869 301.638 376.761C299.004 376.652 296.326 376.49 293.606 376.274C293.736 370.753 293.606 365.287 293.217 359.875C296.456 359.983 299.673 360.091 302.868 360.2C306.107 360.254 309.345 360.335 312.584 360.443C313.836 360.497 315.089 360.552 316.341 360.606C317.636 360.66 318.932 360.687 320.227 360.687C320.443 360.687 320.767 360.687 321.199 360.687C321.63 360.687 322.084 360.66 322.559 360.606C323.034 360.552 323.466 360.47 323.854 360.362C324.286 360.254 324.61 360.091 324.826 359.875C324.999 359.659 325.106 359.361 325.15 358.982C325.193 358.549 325.214 358.17 325.214 357.845C325.214 357.25 325.15 356.547 325.02 355.735C324.891 354.869 324.696 354.165 324.437 353.624C324.394 353.57 324.243 353.516 323.984 353.462C323.768 353.408 323.509 353.381 323.207 353.381C322.904 353.326 322.624 353.299 322.365 353.299C322.105 353.245 321.954 353.218 321.911 353.218C319.148 352.948 316.384 352.758 313.62 352.65C310.9 352.542 308.158 352.352 305.394 352.082C304.142 351.919 302.847 351.757 301.508 351.595C300.213 351.432 299.004 351.135 297.881 350.702C296.801 350.323 295.873 349.484 295.096 348.185C294.362 346.832 293.757 345.317 293.282 343.639C292.85 341.907 292.526 340.175 292.311 338.443C292.138 336.711 292.051 335.25 292.051 334.06C292.051 332.111 292.203 330.271 292.505 328.539C292.807 326.753 293.282 325.103 293.93 323.587C294.621 322.072 295.484 320.746 296.521 319.609C297.557 318.419 298.831 317.444 300.342 316.687C302.933 315.442 305.697 314.576 308.633 314.089C311.612 313.602 314.462 313.358 317.183 313.358C320.378 313.358 323.53 313.602 326.639 314.089C329.748 314.576 332.857 315.198 335.967 315.956C335.923 317.526 335.88 319.095 335.837 320.665C335.837 322.18 335.837 323.722 335.837 325.292C335.837 326.861 335.902 328.458 336.031 330.082C336.161 331.651 336.29 333.221 336.42 334.79C332.318 334.898 328.216 335.007 324.113 335.115C320.054 335.169 315.952 335.304 311.807 335.521C311.289 335.521 310.576 335.548 309.669 335.602C308.806 335.656 307.964 335.737 307.143 335.845C306.323 335.9 305.61 335.954 305.006 336.008C304.401 336.062 304.099 336.089 304.099 336.089C303.883 336.684 303.753 337.307 303.71 337.956C303.667 338.552 303.646 339.174 303.646 339.823C303.646 340.148 303.646 340.554 303.646 341.041C303.689 341.528 303.797 341.907 303.969 342.178C304.013 342.232 304.38 342.313 305.071 342.421C305.761 342.529 306.517 342.638 307.338 342.746C308.201 342.854 309 342.962 309.734 343.071C310.511 343.179 310.986 343.233 311.159 343.233C312.584 343.395 314.246 343.585 316.146 343.801C318.09 344.018 320.054 344.261 322.041 344.532C324.07 344.802 326.013 345.154 327.87 345.587C329.727 345.966 331.346 346.426 332.728 346.967C333.98 347.508 335.124 348.374 336.161 349.565C337.24 350.702 338.169 352.055 338.946 353.624C339.723 355.139 340.328 356.763 340.76 358.495C341.235 360.173 341.472 361.823 341.472 363.447Z" fill="#FF2B2B"/>
<path d="M385.193 330.488V336.17L372.692 336.982C372.519 340.121 372.39 343.233 372.303 346.318C372.217 349.403 372.174 352.488 372.174 355.572C372.174 359.361 372.087 363.149 371.915 366.938C371.785 370.672 371.612 374.406 371.397 378.141C369.842 378.249 368.288 378.33 366.733 378.384C365.179 378.492 363.624 378.547 362.069 378.547C361.508 378.547 360.947 378.52 360.385 378.465C359.867 378.465 359.349 378.465 358.831 378.465C358.917 375.164 358.982 371.89 359.025 368.643C359.112 365.341 359.155 362.067 359.155 358.82C359.155 355.572 359.09 352.325 358.96 349.078C358.831 345.777 358.68 342.475 358.507 339.174C357.255 339.228 355.981 339.282 354.686 339.336C353.433 339.39 352.159 339.417 350.864 339.417C350.13 339.417 349.396 339.417 348.662 339.417C347.971 339.417 347.258 339.39 346.524 339.336C346.395 335.331 346.308 331.353 346.265 327.403C346.222 323.452 346.179 319.501 346.136 315.55C352.613 315.713 359.047 315.956 365.438 316.281C371.828 316.552 378.241 316.795 384.675 317.012C384.847 319.339 384.977 321.612 385.063 323.831C385.15 325.996 385.193 328.214 385.193 330.488Z" fill="#FF2B2B"/>
<path d="M72.4656 279.273L72.3957 290.159C70.2511 290.578 68.1299 290.973 66.032 291.346C63.9341 291.718 61.8129 292.043 59.6684 292.322C57.4306 292.602 55.1929 292.857 52.9551 293.09C50.7173 293.323 48.4796 293.439 46.2418 293.439C45.5891 293.439 44.6334 293.416 43.3747 293.369C42.1159 293.323 40.8106 293.23 39.4586 293.09C38.1066 292.95 36.8246 292.788 35.6125 292.602C34.4003 292.369 33.5145 292.09 32.9551 291.764C32.4423 291.439 31.9528 291.066 31.4866 290.648C31.0204 290.182 30.6008 289.717 30.2278 289.252C29.2488 288.042 28.433 286.717 27.7803 285.274C27.1276 283.832 26.6148 282.344 26.2418 280.808C25.8689 279.273 25.5891 277.715 25.4027 276.133C25.2628 274.551 25.1929 272.993 25.1929 271.458C25.1929 269.597 25.2861 267.666 25.4726 265.666C25.7057 263.665 26.0553 261.688 26.5215 259.734C26.9877 257.78 27.5938 255.896 28.3397 254.082C29.1323 252.267 30.088 250.593 31.2069 249.057C31.5332 248.639 31.9528 248.127 32.4656 247.522C32.9784 246.918 33.4912 246.476 34.0041 246.196C35.2628 245.499 36.6614 244.917 38.1999 244.452C39.7849 243.987 41.4166 243.638 43.095 243.405C44.7733 243.126 46.4283 242.94 48.06 242.847C49.7383 242.707 51.2768 242.638 52.6754 242.638C55.3327 242.638 57.9901 242.8 60.6474 243.126C63.3048 243.405 65.8922 243.917 68.4097 244.661C68.3164 245.917 68.2465 247.197 68.1999 248.499C68.1532 249.755 68.1299 251.011 68.1299 252.267C68.1299 255.291 68.1999 258.339 68.3397 261.409C66.2418 260.618 64.0507 260.06 61.7663 259.734C59.4819 259.362 57.2208 259.176 54.9831 259.176C54.5169 259.176 53.8409 259.222 52.9551 259.315C52.0693 259.362 51.067 259.455 49.9481 259.595C48.8292 259.688 47.6637 259.827 46.4516 260.013C45.2861 260.199 44.1905 260.432 43.1649 260.711C42.1393 260.99 41.2302 261.316 40.4376 261.688C39.6917 262.06 39.2022 262.456 38.9691 262.874C38.7826 263.247 38.6194 263.782 38.4796 264.479C38.3863 265.131 38.2931 265.828 38.1999 266.573C38.1532 267.317 38.1066 268.038 38.06 268.736C38.06 269.434 38.06 269.992 38.06 270.411C38.06 270.83 38.1066 271.667 38.1999 272.923C38.2931 274.179 38.4097 275.528 38.5495 276.97C38.6894 278.366 38.8525 279.645 39.039 280.808C39.2721 281.971 39.5052 282.646 39.7383 282.832C39.9714 282.972 40.3444 283.065 40.8572 283.111C41.4166 283.111 41.7896 283.111 41.9761 283.111C44.2605 283.111 46.708 282.995 49.3187 282.762C51.9295 282.53 54.5635 282.227 57.2208 281.855C59.9248 281.436 62.5821 281.018 65.1929 280.599C67.8036 280.134 70.2278 279.692 72.4656 279.273Z" fill="white"/>
<path d="M131.067 272.783C131.067 275.435 130.997 278.064 130.857 280.669C130.764 283.274 130.531 285.902 130.158 288.554C129.412 289.112 128.666 289.647 127.92 290.159C127.174 290.624 126.405 291.136 125.612 291.694C124.96 292.113 124.237 292.602 123.445 293.16C122.699 293.672 121.906 294.183 121.067 294.695C120.228 295.207 119.365 295.649 118.48 296.021C117.64 296.44 116.848 296.719 116.102 296.858C115.403 297.044 114.47 297.114 113.305 297.068C112.139 297.068 111.16 297.068 110.368 297.068C108.41 297.161 106.452 297.23 104.494 297.277C102.536 297.324 100.531 297.347 98.4796 297.347C97.5472 297.347 96.4749 297.347 95.2628 297.347C94.0507 297.393 92.9551 297.3 91.9761 297.068C91.6964 297.021 91.2302 296.789 90.5775 296.37C89.9248 295.998 89.1789 295.532 88.3397 294.974C87.5472 294.369 86.708 293.741 85.8222 293.09C84.9365 292.392 84.074 291.741 83.2348 291.136C82.4423 290.485 81.743 289.927 81.1369 289.461C80.5775 288.95 80.1812 288.601 79.9481 288.415C79.715 285.949 79.5285 283.507 79.3887 281.088C79.2954 278.622 79.2488 276.156 79.2488 273.691C79.2488 268.899 79.412 264.154 79.7383 259.455C80.1113 254.756 80.5076 250.034 80.9271 245.289L95.3327 244.94C94.8665 247.918 94.5402 251.081 94.3537 254.431C94.1672 257.734 94.074 260.92 94.074 263.991C94.074 264.503 94.0973 265.41 94.1439 266.712C94.1905 267.968 94.2838 269.318 94.4236 270.76C94.5635 272.202 94.7267 273.528 94.9132 274.737C95.1463 275.947 95.426 276.738 95.7523 277.11C95.8922 277.249 96.2418 277.389 96.8013 277.529C97.4073 277.622 98.1066 277.715 98.8992 277.808C99.7383 277.901 100.624 277.971 101.557 278.017C102.489 278.064 103.375 278.11 104.214 278.157C105.053 278.157 105.799 278.18 106.452 278.226C107.104 278.226 107.57 278.226 107.85 278.226C108.083 278.226 108.48 278.226 109.039 278.226C109.598 278.226 110.158 278.226 110.717 278.226C111.323 278.18 111.883 278.133 112.396 278.087C112.908 278.04 113.258 277.947 113.445 277.808C114.004 277.436 114.424 276.528 114.703 275.086C114.983 273.644 115.193 272.062 115.333 270.341C115.473 268.62 115.543 266.968 115.543 265.387C115.543 263.805 115.543 262.665 115.543 261.967C115.543 260.897 115.543 259.827 115.543 258.757C115.589 257.687 115.612 256.617 115.612 255.547C115.612 253.361 115.589 251.221 115.543 249.127C115.496 246.987 115.426 244.824 115.333 242.638C116.312 242.731 117.267 242.8 118.2 242.847C119.179 242.847 120.158 242.847 121.137 242.847C122.302 242.847 123.445 242.824 124.564 242.777C125.729 242.731 126.871 242.591 127.99 242.358C128.969 247.336 129.715 252.384 130.228 257.501C130.787 262.572 131.067 267.666 131.067 272.783Z" fill="white"/>
<path d="M174.773 294.067C169.226 294.486 163.701 294.881 158.2 295.253C152.745 295.625 147.244 295.974 141.696 296.3C141.463 287.414 141.277 278.599 141.137 269.853C140.997 261.06 140.741 252.198 140.368 243.266C143.491 243.219 146.568 243.126 149.598 242.986C152.629 242.847 155.682 242.661 158.759 242.428C158.246 245.871 157.757 249.337 157.291 252.826C156.871 256.268 156.545 259.734 156.312 263.223C156.125 266.154 155.962 269.085 155.822 272.016C155.729 274.9 155.636 277.808 155.543 280.739C158.619 280.832 161.65 280.878 164.633 280.878C167.664 280.878 170.694 280.925 173.724 281.018L174.773 294.067Z" fill="white"/>
<path d="M216.941 255.198V260.083L203.445 260.781C203.258 263.479 203.118 266.154 203.025 268.806C202.932 271.458 202.885 274.109 202.885 276.761C202.885 280.018 202.792 283.274 202.605 286.531C202.466 289.741 202.279 292.95 202.046 296.16C200.368 296.254 198.689 296.323 197.011 296.37C195.333 296.463 193.654 296.509 191.976 296.509C191.37 296.509 190.764 296.486 190.158 296.44C189.598 296.44 189.039 296.44 188.48 296.44C188.573 293.602 188.643 290.787 188.689 287.996C188.783 285.158 188.829 282.344 188.829 279.552C188.829 276.761 188.759 273.97 188.619 271.178C188.48 268.341 188.316 265.503 188.13 262.665C186.778 262.712 185.403 262.758 184.004 262.805C182.652 262.851 181.277 262.874 179.878 262.874C179.086 262.874 178.293 262.874 177.501 262.874C176.755 262.874 175.985 262.851 175.193 262.805C175.053 259.362 174.96 255.943 174.913 252.547C174.867 249.151 174.82 245.754 174.773 242.358C181.766 242.498 188.713 242.707 195.612 242.986C202.512 243.219 209.435 243.428 216.382 243.614C216.568 245.615 216.708 247.569 216.801 249.476C216.895 251.337 216.941 253.244 216.941 255.198Z" fill="white"/>
<path d="M277.011 272.783C277.011 275.435 276.941 278.064 276.801 280.669C276.708 283.274 276.475 285.902 276.102 288.554C275.356 289.112 274.61 289.647 273.864 290.159C273.118 290.624 272.349 291.136 271.557 291.694C270.904 292.113 270.181 292.602 269.389 293.16C268.643 293.672 267.85 294.183 267.011 294.695C266.172 295.207 265.309 295.649 264.424 296.021C263.584 296.44 262.792 296.719 262.046 296.858C261.347 297.044 260.414 297.114 259.249 297.068C258.083 297.068 257.104 297.068 256.312 297.068C254.354 297.161 252.396 297.23 250.438 297.277C248.48 297.324 246.475 297.347 244.424 297.347C243.491 297.347 242.419 297.347 241.207 297.347C239.995 297.393 238.899 297.3 237.92 297.068C237.64 297.021 237.174 296.789 236.522 296.37C235.869 295.998 235.123 295.532 234.284 294.974C233.491 294.369 232.652 293.741 231.766 293.09C230.881 292.392 230.018 291.741 229.179 291.136C228.386 290.485 227.687 289.927 227.081 289.461C226.522 288.95 226.125 288.601 225.892 288.415C225.659 285.949 225.473 283.507 225.333 281.088C225.239 278.622 225.193 276.156 225.193 273.691C225.193 268.899 225.356 264.154 225.682 259.455C226.055 254.756 226.452 250.034 226.871 245.289L241.277 244.94C240.811 247.918 240.484 251.081 240.298 254.431C240.111 257.734 240.018 260.92 240.018 263.991C240.018 264.503 240.041 265.41 240.088 266.712C240.135 267.968 240.228 269.318 240.368 270.76C240.508 272.202 240.671 273.528 240.857 274.737C241.09 275.947 241.37 276.738 241.696 277.11C241.836 277.249 242.186 277.389 242.745 277.529C243.351 277.622 244.051 277.715 244.843 277.808C245.682 277.901 246.568 277.971 247.501 278.017C248.433 278.064 249.319 278.11 250.158 278.157C250.997 278.157 251.743 278.18 252.396 278.226C253.048 278.226 253.515 278.226 253.794 278.226C254.027 278.226 254.424 278.226 254.983 278.226C255.543 278.226 256.102 278.226 256.661 278.226C257.267 278.18 257.827 278.133 258.34 278.087C258.853 278.04 259.202 277.947 259.389 277.808C259.948 277.436 260.368 276.528 260.647 275.086C260.927 273.644 261.137 272.062 261.277 270.341C261.417 268.62 261.487 266.968 261.487 265.387C261.487 263.805 261.487 262.665 261.487 261.967C261.487 260.897 261.487 259.827 261.487 258.757C261.533 257.687 261.557 256.617 261.557 255.547C261.557 253.361 261.533 251.221 261.487 249.127C261.44 246.987 261.37 244.824 261.277 242.638C262.256 242.731 263.212 242.8 264.144 242.847C265.123 242.847 266.102 242.847 267.081 242.847C268.246 242.847 269.389 242.824 270.508 242.777C271.673 242.731 272.815 242.591 273.934 242.358C274.913 247.336 275.659 252.384 276.172 257.501C276.731 262.572 277.011 267.666 277.011 272.783Z" fill="white"/>
<path d="M337.501 260.711C337.501 264.526 336.335 267.527 334.004 269.713C331.673 271.9 328.596 273.086 324.773 273.272C329.389 280.948 333.421 288.81 336.871 296.858L316.452 297.347C316.079 293.579 315.519 290.113 314.773 286.949C314.027 283.786 312.978 280.459 311.626 276.97C310.088 277.063 308.55 277.18 307.011 277.319C305.519 277.459 304.027 277.575 302.536 277.668L302.885 293.509C300.228 293.648 297.571 293.718 294.913 293.718C293.561 293.718 292.233 293.695 290.927 293.648C289.668 293.602 288.386 293.509 287.081 293.369C287.407 289.089 287.71 284.832 287.99 280.599C288.27 276.319 288.433 272.062 288.48 267.829C288.619 260.292 288.829 252.756 289.109 245.219C293.491 244.987 297.85 244.731 302.186 244.452C306.568 244.173 310.95 244.033 315.333 244.033C316.452 244.033 317.664 244.056 318.969 244.103C320.274 244.149 321.58 244.289 322.885 244.522C324.237 244.708 325.519 244.987 326.731 245.359C327.99 245.731 329.109 246.22 330.088 246.824C332.466 248.313 334.284 250.314 335.543 252.826C336.848 255.291 337.501 257.92 337.501 260.711ZM321.277 259.595C321.277 259.222 321.254 258.711 321.207 258.059C321.207 257.408 321.16 256.757 321.067 256.105C320.974 255.408 320.834 254.78 320.647 254.221C320.461 253.617 320.205 253.175 319.878 252.896C319.645 252.709 319.249 252.57 318.689 252.477C318.13 252.384 317.524 252.314 316.871 252.267C316.265 252.174 315.659 252.128 315.053 252.128C314.494 252.081 314.097 252.058 313.864 252.058C311.999 252.058 310.158 252.151 308.34 252.337C306.568 252.523 304.797 252.756 303.025 253.035L304.913 266.573C305.939 266.805 307.011 266.968 308.13 267.061C309.249 267.154 310.344 267.201 311.417 267.201C311.883 267.201 312.559 267.178 313.445 267.131C314.377 267.085 315.309 266.992 316.242 266.852C317.221 266.712 318.107 266.526 318.899 266.294C319.738 266.015 320.321 265.666 320.647 265.247C320.787 265.061 320.904 264.712 320.997 264.2C321.09 263.642 321.137 263.084 321.137 262.525C321.184 261.921 321.207 261.339 321.207 260.781C321.254 260.223 321.277 259.827 321.277 259.595Z" fill="white"/>
<path d="M385.193 253.314C380.624 253.547 376.079 253.803 371.557 254.082C367.081 254.314 362.559 254.617 357.99 254.989L357.85 260.502L375.892 259.455C376.125 261.037 376.288 262.595 376.382 264.13C376.522 265.666 376.591 267.224 376.591 268.806C376.591 269.457 376.568 270.132 376.522 270.83C376.522 271.527 376.522 272.202 376.522 272.853L359.738 275.854L360.787 284.507C364.33 284.274 367.85 283.949 371.347 283.53C374.89 283.065 378.456 282.669 382.046 282.344C382.372 284.67 382.699 287.019 383.025 289.392C383.351 291.718 383.818 293.997 384.424 296.23C377.804 296.184 371.23 296.184 364.703 296.23C358.177 296.323 351.603 296.37 344.983 296.37C345.123 290.927 345.286 285.507 345.473 280.111C345.659 274.714 345.752 269.271 345.752 263.782V262.456C345.752 259.292 345.706 256.152 345.612 253.035C345.519 249.872 345.426 246.685 345.333 243.475C349.016 243.521 352.675 243.545 356.312 243.545C359.995 243.498 363.701 243.475 367.431 243.475C370.274 243.475 373.095 243.545 375.892 243.684C378.736 243.777 381.58 243.894 384.424 244.033L385.193 253.314Z" fill="white"/>
</svg>
