<svg width="75" height="49" viewBox="0 0 75 49" fill="none" xmlns="http://www.w3.org/2000/svg">
<path d="M0.0948686 35.7909C0.18792 42.7742 5.68183 48.4882 12.6561 48.8552C19.8196 48.8552 25.6723 43.1351 25.8363 35.9735L25.985 29.4843C25.9952 29.0383 25.6364 28.6713 25.1903 28.6713H0.812513C0.365537 28.6713 0.00487028 29.0368 0.0108256 29.4837L0.0948686 35.7909Z" fill="#FF2B2B"/>
<circle cx="13.0019" cy="13.0019" r="13.0019" fill="#FF2B2B"/>
<path d="M21.7511 13.4628C22.1779 13.4628 22.5271 13.1163 22.4937 12.6908C22.4147 11.6809 22.1808 10.6883 21.7992 9.74939C21.3207 8.57209 20.6194 7.50237 19.7352 6.6013C18.8511 5.70023 17.8015 4.98546 16.6463 4.4978C15.4912 4.01015 14.2531 3.75916 13.0027 3.75916C11.7524 3.75916 10.5143 4.01015 9.35911 4.4978C8.20394 4.98546 7.15434 5.70023 6.27021 6.6013C5.38608 7.50237 4.68476 8.57209 4.20627 9.74939C3.82468 10.6883 3.59078 11.6809 3.5117 12.6908C3.47837 13.1163 3.82752 13.4628 4.25433 13.4628C4.68115 13.4628 5.02341 13.1161 5.06317 12.6911C5.1383 11.8883 5.33037 11.0999 5.63425 10.3522C6.03506 9.36603 6.62254 8.46996 7.36314 7.71517C8.10374 6.96038 8.98296 6.36164 9.9506 5.95315C10.9182 5.54466 11.9554 5.33441 13.0027 5.33441C14.0501 5.33441 15.0872 5.54466 16.0548 5.95315C17.0225 6.36164 17.9017 6.96038 18.6423 7.71517C19.3829 8.46996 19.9704 9.36603 20.3712 10.3522C20.6751 11.0999 20.8671 11.8883 20.9423 12.6911C20.982 13.1161 21.3243 13.4628 21.7511 13.4628Z" fill="white"/>
<path d="M17.3323 13.4372C17.7675 13.4372 18.126 13.0827 18.0642 12.652C18.0028 12.2249 17.8916 11.8063 17.7322 11.4056C17.4761 10.7615 17.1007 10.1762 16.6274 9.68325C16.1541 9.19028 15.5922 8.79923 14.9738 8.53243C14.3554 8.26563 13.6926 8.12831 13.0233 8.12831C12.3539 8.12831 11.6911 8.26563 11.0727 8.53243C10.4544 8.79923 9.89247 9.19028 9.41918 9.68325C8.94588 10.1762 8.57044 10.7615 8.3143 11.4056C8.15494 11.8063 8.04369 12.2249 7.98237 12.652C7.92053 13.0827 8.27906 13.4372 8.7142 13.4372C9.14933 13.4372 9.49384 13.0808 9.58311 12.6549C9.62753 12.443 9.69003 12.235 9.77011 12.0337C9.94707 11.5887 10.2064 11.1844 10.5334 10.8438C10.8604 10.5032 11.2486 10.2331 11.6758 10.0488C12.103 9.86446 12.5609 9.7696 13.0233 9.7696C13.4857 9.7696 13.9436 9.86446 14.3708 10.0488C14.798 10.2331 15.1862 10.5032 15.5131 10.8438C15.8401 11.1844 16.0995 11.5887 16.2764 12.0337C16.3565 12.235 16.419 12.443 16.4634 12.6549C16.5527 13.0808 16.8972 13.4372 17.3323 13.4372Z" fill="white"/>
<path d="M14.0594 13.5406C14.0594 12.9567 13.5861 12.4834 13.0022 12.4834C12.4183 12.4834 11.945 12.9567 11.945 13.5406V34.0568C11.945 34.6406 12.4183 35.1139 13.0022 35.1139C13.5861 35.1139 14.0594 34.6406 14.0594 34.0568V13.5406Z" fill="url(#paint0_linear_2857_62)"/>
<path d="M14.0594 13.5406C14.0594 12.9567 13.5861 12.4834 13.0022 12.4834C12.4183 12.4834 11.945 12.9567 11.945 13.5406V34.0568C11.945 34.6406 12.4183 35.1139 13.0022 35.1139C13.5861 35.1139 14.0594 34.6406 14.0594 34.0568V13.5406Z" fill="#DCDCDC"/>
<path d="M35.6417 42.739C35.6417 43.5617 35.2835 44.2877 34.7028 44.6458C34.3059 44.8878 33.8413 44.9653 32.825 44.9653H32.3991V47.6852H31.073V40.5321H32.8443C33.7929 40.5321 34.2672 40.6192 34.6737 40.8612C35.2932 41.2387 35.6417 41.9162 35.6417 42.739ZM34.3059 42.7584C34.3059 42.0034 33.8607 41.8001 32.8443 41.8001H32.3991V43.6973H32.7863C33.9768 43.6973 34.3059 43.3778 34.3059 42.7584Z" fill="#FF2B2B"/>
<path d="M43.5747 44.1038C43.5747 46.1945 41.9679 47.811 39.8868 47.811C37.7864 47.811 36.1215 46.1752 36.1215 44.1135C36.1215 42.0227 37.767 40.4062 39.8965 40.4062C41.9388 40.4062 43.5747 42.0614 43.5747 44.1038ZM42.2389 44.1231C42.2389 42.7487 41.2032 41.6839 39.8771 41.6839C38.5026 41.6839 37.4573 42.7293 37.4573 44.1135C37.4573 45.4686 38.522 46.5333 39.8771 46.5333C41.2322 46.5333 42.2389 45.4976 42.2389 44.1231Z" fill="#FF2B2B"/>
<path d="M50.3487 44.1231C50.3487 45.5654 49.7002 46.7463 48.5968 47.2883C48.016 47.5787 47.3675 47.6852 46.2834 47.6852H44.6185V40.5321H46.2543C47.3772 40.5321 48.2289 40.7063 48.7904 41.0451C49.7873 41.6452 50.3487 42.768 50.3487 44.1231ZM49.013 44.1231C49.013 43.2036 48.5968 42.4389 47.9192 42.0905C47.503 41.8775 47.0481 41.8001 46.2059 41.8001H45.9446V46.4172H46.235C47.0287 46.4172 47.5804 46.3204 47.9773 46.0978C48.6161 45.7493 49.013 44.9846 49.013 44.1231Z" fill="#FF2B2B"/>
<path d="M58.0942 45.6912C57.5328 46.9979 56.2551 47.811 54.7935 47.811C52.7027 47.811 51.0282 46.1461 51.0282 44.0844C51.0282 42.0614 52.6834 40.4062 54.7064 40.4062C56.1776 40.4062 57.465 41.2 58.0942 42.5841H56.6132C56.1292 41.955 55.5678 41.6839 54.7354 41.6839C53.3706 41.6839 52.364 42.7487 52.364 44.0941C52.364 45.4299 53.448 46.5333 54.7644 46.5333C55.4517 46.5333 55.955 46.301 56.5358 45.6912H58.0942Z" fill="#FF2B2B"/>
<path d="M65.2436 47.6852H63.782L63.0174 45.8364H60.4717L59.678 47.6852H58.2164L61.1976 40.5321H62.243L65.2436 47.6852ZM62.485 44.5684L61.7203 42.4002L60.9557 44.5684H62.485Z" fill="#FF2B2B"/>
<path d="M70.0856 45.517C70.0856 46.814 69.0886 47.811 67.8013 47.811C66.5429 47.811 65.5653 46.9979 65.4492 45.6428H66.8333C66.8914 46.2429 67.2108 46.5333 67.8013 46.5333C68.3724 46.5333 68.7692 46.1752 68.7692 45.6622C68.7692 45.3718 68.6531 45.1008 68.4401 44.9362C68.2272 44.7717 68.1497 44.7426 67.2011 44.3845C66.2429 44.0264 65.7105 43.3391 65.7105 42.4389C65.7105 41.3064 66.6397 40.4062 67.7916 40.4062C68.9434 40.4062 69.8436 41.1806 69.9114 42.4389H68.5369C68.4982 41.955 68.2272 41.6839 67.7819 41.6839C67.3463 41.6839 67.0463 41.984 67.0463 42.4099C67.0463 42.6712 67.1818 42.8939 67.4431 43.0584C67.5399 43.1165 67.5593 43.1262 68.2368 43.3778C69.6888 43.9199 70.0856 44.549 70.0856 45.517Z" fill="#FF2B2B"/>
<path d="M74.3884 41.8001H73.0623V47.6852H71.7363V41.8001H70.4102V40.5321H74.3884V41.8001Z" fill="#FF2B2B"/>
<path d="M35.9231 31.5276C34.3068 31.8502 32.6895 32.1739 31.0732 32.4975C31.0732 22.3317 31.0732 12.1658 31.0732 2C32.6895 2 34.3068 2 35.9231 2C35.9231 11.8422 35.9231 21.6854 35.9231 31.5276ZM58.6997 26.9716C56.7106 27.3701 54.7204 27.7675 52.7303 28.1659C52.7252 28.1669 52.7211 28.168 52.7159 28.169C50.4267 25.2867 48.1364 22.2282 45.8472 18.9957C45.8472 22.5109 45.8472 26.0272 45.8472 29.5425C44.2299 29.8662 42.6136 30.1888 40.9963 30.5125C40.9963 21.0083 40.9963 11.5042 40.9963 2C43.5109 2 46.0244 2 48.538 2C50.2802 2 51.619 2.12086 52.7303 2.40663C53.901 2.70674 54.8188 3.18815 55.6904 3.90309C57.4962 5.36881 58.4518 7.48905 58.4518 10.0251C58.4518 13.5855 56.6635 16.35 52.7303 18.1762C52.3769 18.3391 52.0061 18.4938 51.619 18.6402C51.9887 19.1032 52.3595 19.5631 52.7303 20.0179C54.7204 22.4597 56.7106 24.7776 58.6997 26.9716ZM53.5661 10.4789C53.5661 9.42901 53.3704 8.55019 52.7303 7.91309C51.9549 7.14284 50.5281 6.7188 48.0074 6.80586C47.2873 6.83147 46.5673 6.85707 45.8472 6.88268C45.8472 9.64001 45.8472 12.3984 45.8472 15.1567C46.6379 15.0809 47.4287 15.0051 48.2194 14.9293C50.44 14.7163 51.9047 14.1468 52.7303 13.1614C53.2998 12.4803 53.5661 11.5994 53.5661 10.4789ZM74.3884 23.8343C70.1039 24.6916 65.8194 25.5479 61.5349 26.4052C61.5349 18.2705 61.5349 10.1347 61.5349 2C63.1522 2 64.7695 2 66.3858 2C66.3858 8.42727 66.3858 14.8535 66.3858 21.2808C69.053 20.8414 71.7202 20.403 74.3884 19.9636C74.3884 21.2542 74.3884 22.5447 74.3884 23.8343Z" fill="black"/>
<path d="M37.3188 37.3988C36.8167 38.4594 35.6742 39.1193 34.3671 39.1193C32.4975 39.1193 31 37.768 31 36.0946C31 34.4526 32.4802 33.1091 34.2892 33.1091C35.6049 33.1091 36.7561 33.7534 37.3188 34.8768L35.8651 34.953C35.459 34.4737 34.9878 34.2673 34.2892 34.2673C33.1439 34.2673 32.2991 35.0783 32.2991 36.1032C32.2991 37.1206 33.2088 37.9611 34.3136 37.9611C34.8903 37.9611 35.3127 37.7842 35.8001 37.3197L37.3188 37.3988Z" fill="black"/>
<path d="M43.8064 36.3504C43.8064 38.2146 42.5725 39.1364 40.8397 39.119C39.1195 39.1016 37.8855 38.3078 37.8855 36.7837C37.8855 35.5003 37.8855 34.2169 37.8855 32.9335C38.427 32.829 38.9695 32.7245 39.511 32.62C39.511 33.968 39.511 35.3159 39.511 36.6649C39.511 37.6533 40.0212 37.9575 40.8522 37.9329C41.6582 37.9083 42.1809 37.557 42.1809 36.4692C42.1809 35.0138 42.1809 33.5583 42.1809 32.1038C42.7224 31.9983 43.2639 31.8938 43.8064 31.7894C43.8064 33.3094 43.8064 34.8304 43.8064 36.3504ZM49.7814 38.9725C48.3455 38.9777 46.9105 38.9818 45.4746 38.9869C45.4746 36.4805 45.4746 33.9731 45.4746 31.4667C46.0161 31.3612 46.5586 31.2567 47.1001 31.1523C47.1001 33.2991 47.1001 35.446 47.1001 37.5939C47.9935 37.5601 48.888 37.5273 49.7814 37.4945C49.7814 37.9872 49.7814 38.4799 49.7814 38.9725ZM54.3778 31.3776C53.8363 31.4647 53.2938 31.5507 52.7523 31.6378C52.7523 34.0786 52.7523 36.5204 52.7523 38.9623C52.2629 38.9643 51.7724 38.9654 51.283 38.9674C51.2309 38.9674 51.1789 38.9674 51.1268 38.9684C51.1268 36.6106 51.1268 34.2537 51.1268 31.8969C50.5853 31.9829 50.0428 32.07 49.5013 32.156C49.5013 31.6664 49.5013 31.1768 49.5013 30.6872C50.0949 30.5725 50.6895 30.4578 51.283 30.3431C52.3149 30.1434 53.3458 29.9436 54.3778 29.7449C54.3778 30.2888 54.3778 30.8337 54.3778 31.3776ZM61.1276 35.0854C61.1276 37.7916 59.8936 39.1364 58.1619 39.119C56.4417 39.1016 55.2077 37.8807 55.2067 35.5177C55.2067 33.5398 55.2067 31.562 55.2067 29.5841C55.7492 29.4796 56.2907 29.3752 56.8332 29.2697C56.8332 31.3131 56.8332 33.3565 56.8332 35.3999C56.8332 36.9004 57.3424 37.3696 58.1734 37.345C58.9804 37.3204 59.5021 36.8083 59.5021 35.2043C59.5021 33.0543 59.5021 30.9044 59.5021 28.7534C60.0436 28.649 60.5861 28.5445 61.1276 28.439C61.1276 30.6545 61.1276 32.87 61.1276 35.0854ZM68.7291 38.909C68.0606 38.9111 67.3921 38.9131 66.7236 38.9162C65.9561 37.4433 65.1887 36.0257 64.4212 34.6645C64.4212 36.0841 64.4212 37.5037 64.4212 38.9234C63.8797 38.9254 63.3383 38.9275 62.7968 38.9285C62.7968 35.3251 62.7968 31.7207 62.7968 28.1163C63.6392 27.9535 64.4806 27.7906 65.323 27.6278C66.5215 27.3963 67.1505 27.4895 67.7201 28.0385C68.3251 28.6131 68.6458 29.5985 68.6458 30.8091C68.6458 32.6702 67.9336 34.0499 66.356 34.6727C67.1463 36.0298 67.9377 37.4413 68.7291 38.909ZM67.0078 31.0888C67.0078 30.0502 66.6882 29.4069 65.1449 29.6579C64.9044 29.6968 64.6628 29.7347 64.4212 29.7736C64.4212 30.887 64.4212 32.0014 64.4212 33.1148C64.6868 33.0871 64.9513 33.0605 65.2168 33.0328C66.4747 32.9079 67.0078 32.3189 67.0078 31.0888ZM74.3886 38.8906C72.8183 38.8957 71.2491 38.9008 69.6788 38.906C69.6788 34.8663 69.6788 30.8255 69.6788 26.7858C71.2491 26.4816 72.8183 26.1784 74.3886 25.8752C74.3886 26.6434 74.3886 27.4127 74.3886 28.1819C73.3609 28.3458 72.3321 28.5107 71.3043 28.6746C71.3043 29.6497 71.3043 30.6258 71.3043 31.6009C72.2883 31.4882 73.2734 31.3745 74.2585 31.2619C74.2585 32.029 74.2585 32.7962 74.2585 33.5644C73.2734 33.6443 72.2883 33.7242 71.3043 33.8041C71.3043 34.769 71.3043 35.7328 71.3043 36.6976C72.3321 36.6587 73.3609 36.6208 74.3886 36.5829C74.3886 37.3522 74.3886 38.1214 74.3886 38.8906Z" fill="black"/>
<defs>
<linearGradient id="paint0_linear_2857_62" x1="13.6183" y1="23.7987" x2="12.1768" y2="23.7987" gradientUnits="userSpaceOnUse">
<stop stop-color="#FF5D5D"/>
<stop offset="0.475962" stop-color="#E53939"/>
<stop offset="1" stop-color="#D00D0D"/>
</linearGradient>
</defs>
</svg>
