<svg width="428" height="380" viewBox="0 0 428 380" fill="none" xmlns="http://www.w3.org/2000/svg">
<rect x="16.4551" y="31.9102" width="366.006" height="159.655" fill="#FF2B2B"/>
<path d="M401.196 227.035C380.045 225.404 358.994 223.696 338.042 221.912C317.267 220.156 296.327 218.282 275.223 216.291C278.816 181.794 282.55 147.594 286.425 113.691C290.324 79.6084 293.818 45.1876 296.907 10.4286C308.72 12.0787 320.381 13.5217 331.889 14.7574C343.397 15.9931 355.017 17.0626 366.748 17.9658C363.079 30.9778 359.486 44.0934 355.97 57.3126C352.653 70.3793 349.677 83.5905 347.04 96.9463C344.861 108.171 342.77 119.409 340.766 130.66C338.962 141.759 337.147 152.948 335.319 164.227C346.886 166.39 358.301 168.345 369.563 170.093C381.001 171.869 392.415 173.824 403.806 175.959L401.196 227.035Z" fill="white" stroke="#FF2B2B" stroke-width="7.66376"/>
<path d="M110.645 5.12955C110.884 16.1185 111.612 27.0507 112.832 37.9262C114.034 48.6231 114.991 59.3484 115.702 70.102L88.3718 72.1766C88.8141 78.4464 89.2478 84.6269 89.6727 90.7181C90.2613 96.7904 90.8584 102.952 91.4642 109.203C92.1912 116.704 92.9095 124.116 93.6192 131.438C94.4751 138.563 95.3483 145.867 96.2388 153.349L121.31 150.994C121.485 156.211 121.832 161.498 122.351 166.856C122.87 172.214 123.389 177.572 123.909 182.93C124.341 187.395 124.856 191.85 125.452 196.296C126.212 200.724 127.208 205.033 128.441 209.225L40.5404 221.008C39.6922 212.256 38.7796 203.693 37.8026 195.318C36.8082 186.764 35.6417 178.14 34.303 169.445L50.2205 167.335C47.7758 150.642 45.1849 134.145 42.4478 117.847C39.8743 101.529 37.2103 85.1318 34.4559 68.6545L10.8424 68.1324C9.7884 60.6692 8.74304 53.2952 7.70632 46.0105C6.81582 38.5283 5.84356 31.0556 4.78954 23.5923C22.5442 20.8182 40.1268 17.9738 57.5371 15.059C75.0937 11.9467 92.7964 8.63686 110.645 5.12955Z" fill="white" stroke="#FF2B2B" stroke-width="8.48904"/>
<path d="M216.881 12.4452C220.649 12.5541 224.718 12.7571 229.086 13.054C233.58 13.3595 238.063 14.0146 242.531 15.0165C247.164 15.8563 251.572 17.0409 255.748 18.5776L255.747 18.5776C259.885 20.0509 263.632 21.9241 266.964 24.2164L267.627 24.6821L267.637 24.6892L267.645 24.6953C275.947 30.7242 282.2 38.6799 286.403 48.4696C290.749 58.0616 292.791 68.2185 292.532 78.8954C292.179 93.4511 287.807 105.232 279.042 113.766C271.603 121.007 262.287 125.19 251.291 126.445C264.948 153.343 276.865 180.797 287.041 208.808L288.814 213.687L283.632 213.673L215.819 213.488L212.409 213.479L212.184 210.074C211.286 196.474 209.75 183.979 207.585 172.584C205.571 161.984 202.705 150.829 198.982 139.115C194.831 139.295 190.678 139.53 186.525 139.821C182.675 140.103 178.827 140.334 174.98 140.515L174.759 194.64L174.745 198.143L171.245 198.243C162.344 198.497 153.448 198.496 144.559 198.239C140.026 198.108 135.571 197.893 131.195 197.596L131.189 197.595C126.919 197.299 122.581 196.828 118.173 196.183L114.739 195.681L115.064 192.228C116.523 176.723 117.902 161.3 119.202 145.96C120.503 130.5 121.416 115.113 121.941 99.8011L121.942 99.7767C123.07 72.393 124.432 45.0157 126.025 17.6455L126.218 14.3352L129.532 14.2385C144.082 13.8144 158.557 13.3039 172.956 12.7065L172.958 12.7065C187.611 12.1096 202.252 12.0224 216.881 12.4452ZM211.124 48.7253C205.068 48.5502 199.083 48.7078 193.17 49.1979L192.96 49.2153L192.75 49.2083C189.378 49.0967 187.451 49.5317 186.316 50.0979C185.329 50.5907 184.687 51.3064 184.169 52.5574C183.589 53.96 183.234 55.8779 182.914 58.6193C182.616 61.1787 182.336 64.5896 181.833 68.1232C180.903 74.6558 181.36 81.6264 182.086 87.0581C182.447 89.7535 182.867 92.026 183.195 93.6173C183.222 93.7477 183.249 93.8737 183.275 93.9947C185.838 94.6154 188.504 95.0964 191.277 95.4296C194.878 95.8624 198.401 96.1279 201.844 96.2275C203.285 96.2691 205.448 96.2515 208.372 96.168L208.383 96.1673C211.349 96.0912 214.321 95.8533 217.3 95.453L217.327 95.4499C220.406 95.06 223.15 94.5084 225.572 93.8105C227.937 93.0164 229.091 92.1572 229.603 91.5188C229.627 91.4692 229.695 91.3268 229.787 91.0493C229.928 90.6248 230.083 90.0217 230.24 89.2072C230.565 87.374 230.749 85.5403 230.794 83.7053L230.797 83.5774L230.809 83.4508C231.009 81.336 231.133 79.3108 231.18 77.375L231.183 77.2364L231.197 77.099C231.401 75.0759 231.5 73.7646 231.516 73.0724C231.546 71.8371 231.517 70.067 231.421 67.7267L231.416 67.6084L231.419 67.4892C231.473 65.2824 231.382 63.0699 231.146 60.8507L231.143 60.8194C230.912 58.4455 230.536 56.3641 230.033 54.5592L230.022 54.5217L230.012 54.4833C229.555 52.691 229.004 51.7807 228.611 51.3576C228.554 51.3192 228.418 51.2369 228.164 51.1307C227.78 50.9701 227.223 50.7942 226.452 50.6309C224.742 50.2684 222.86 49.9747 220.803 49.7544L220.643 49.7371L220.485 49.7061C218.677 49.3486 216.87 49.1444 215.064 49.0922L214.899 49.0874L214.735 49.068C212.882 48.8454 211.716 48.7424 211.124 48.7253Z" fill="white" stroke="#FF2B2B" stroke-width="7.27197"/>
<path d="M71.2449 336.982C71.2449 338.172 71.1801 339.606 71.0506 341.284C70.9642 342.962 70.7915 344.667 70.5324 346.399C70.3165 348.13 69.9927 349.754 69.5609 351.269C69.129 352.785 68.5893 353.975 67.9416 354.841C67.6825 355.22 66.8405 355.599 65.4155 355.978C64.0337 356.303 62.3496 356.654 60.3633 357.033C58.4202 357.358 56.3259 357.683 54.0805 358.007C51.8351 358.332 49.6976 358.63 47.6681 358.9C45.6818 359.117 43.9545 359.306 42.4864 359.469C41.0182 359.631 40.0898 359.712 39.7012 359.712L39.183 376.598C37.8444 376.706 36.5274 376.733 35.232 376.679C33.9365 376.571 32.6195 376.517 31.2809 376.517C30.4173 376.517 29.5537 376.544 28.69 376.598C27.8264 376.652 26.9628 376.733 26.0992 376.841C26.0992 371.754 26.0992 366.721 26.0992 361.742C26.0992 356.763 26.0128 351.729 25.8401 346.642C25.7106 342.042 25.581 337.469 25.4515 332.922C25.3651 328.376 25.2787 323.803 25.1924 319.203C29.64 318.824 34.1093 318.364 38.6001 317.823C43.1341 317.228 47.6465 316.93 52.1373 316.93C52.9146 316.93 54.1452 317.038 55.8293 317.255C57.5134 317.417 59.2838 317.715 61.1406 318.148C62.9973 318.526 64.703 319.014 66.2575 319.609C67.8552 320.204 68.9131 320.881 69.4313 321.638C69.7768 322.125 70.0574 323.073 70.2733 324.48C70.5324 325.887 70.7267 327.402 70.8563 329.026C70.9858 330.595 71.0722 332.138 71.1154 333.653C71.2017 335.168 71.2449 336.278 71.2449 336.982ZM53.1089 336.413C53.1089 335.926 53.0873 335.304 53.0441 334.546C53.0009 333.788 52.9146 333.058 52.785 332.354C52.6987 331.597 52.5475 330.92 52.3316 330.325C52.1157 329.675 51.8351 329.215 51.4896 328.945C51.2737 328.782 50.9283 328.647 50.4533 328.539C49.9783 328.43 49.4817 328.349 48.9635 328.295C48.4454 328.241 47.9488 328.214 47.4738 328.214C46.9988 328.16 46.6533 328.133 46.4374 328.133C44.8397 328.133 43.242 328.241 41.6443 328.458C40.0466 328.674 38.4274 328.945 36.7865 329.269C36.916 330.893 36.9808 332.49 36.9808 334.059C37.024 335.629 37.0456 337.198 37.0456 338.768C37.0456 341.311 37.1103 343.882 37.2399 346.48C37.8012 346.48 38.7728 346.453 40.1546 346.399C41.5364 346.29 42.983 346.155 44.4943 345.993C46.0056 345.776 47.4306 345.506 48.7692 345.181C50.1078 344.802 51.0146 344.315 51.4896 343.72C52.2669 342.799 52.7203 341.69 52.8498 340.391C53.0225 339.038 53.1089 337.712 53.1089 336.413Z" fill="#FF2B2B"/>
<path d="M132.843 343.07C132.843 343.774 132.843 344.477 132.843 345.181C132.843 345.83 132.821 346.48 132.778 347.129C132.735 347.67 132.67 348.617 132.584 349.97C132.54 351.323 132.454 352.893 132.324 354.679C132.238 356.411 132.109 358.251 131.936 360.199C131.806 362.148 131.634 363.961 131.418 365.638C131.245 367.262 131.051 368.669 130.835 369.86C130.619 371.05 130.403 371.781 130.187 372.052C128.892 373.675 127.337 374.893 125.523 375.705C123.753 376.462 121.896 376.977 119.953 377.247C118.01 377.518 116.067 377.626 114.124 377.572C112.181 377.518 110.367 377.491 108.683 377.491C108.121 377.491 107.172 377.491 105.833 377.491C104.494 377.437 102.961 377.383 101.234 377.328C99.5501 377.274 97.7796 377.193 95.9229 377.085C94.0661 376.922 92.3172 376.733 90.6764 376.517C89.0787 376.246 87.6753 375.948 86.4662 375.624C85.3003 375.245 84.5663 374.785 84.264 374.244C83.9185 373.648 83.6163 372.999 83.3572 372.295C83.0981 371.592 82.8606 370.915 82.6447 370.266C82.0833 368.48 81.5652 366.585 81.0902 364.583C80.6152 362.526 80.205 360.443 79.8595 358.332C79.5573 356.167 79.2982 354.029 79.0823 351.919C78.9095 349.808 78.8232 347.806 78.8232 345.911C78.8232 344.883 78.888 343.557 79.0175 341.934C79.147 340.256 79.3198 338.47 79.5357 336.576C79.7516 334.627 80.0107 332.652 80.3129 330.649C80.6152 328.647 80.9391 326.78 81.2845 325.048C81.6731 323.316 82.0834 321.828 82.5152 320.583C82.947 319.284 83.422 318.418 83.9401 317.985C84.3719 317.606 85.1708 317.255 86.3367 316.93C87.5026 316.605 88.8628 316.335 90.4173 316.118C91.9718 315.847 93.6343 315.631 95.4047 315.469C97.1751 315.252 98.8592 315.09 100.457 314.982C102.055 314.819 103.501 314.711 104.797 314.657C106.092 314.603 107.042 314.576 107.646 314.576C108.467 314.576 109.568 314.63 110.95 314.738C112.375 314.846 113.908 315.036 115.549 315.306C117.19 315.523 118.852 315.82 120.536 316.199C122.22 316.524 123.775 316.93 125.2 317.417C126.668 317.904 127.92 318.445 128.956 319.041C129.993 319.636 130.64 320.285 130.899 320.989C131.115 321.584 131.31 322.45 131.482 323.587C131.698 324.669 131.871 325.914 132.001 327.321C132.13 328.728 132.238 330.216 132.324 331.786C132.454 333.355 132.54 334.871 132.584 336.332C132.67 337.739 132.735 339.038 132.778 340.229C132.821 341.419 132.843 342.367 132.843 343.07ZM121.249 345.749C121.249 344.667 121.205 343.53 121.119 342.339C121.033 341.095 120.752 340.012 120.277 339.092C119.931 338.443 119.089 337.929 117.751 337.55C116.455 337.171 115.009 336.9 113.411 336.738C111.857 336.576 110.345 336.494 108.877 336.494C107.409 336.44 106.373 336.413 105.768 336.413C105.293 336.413 104.451 336.467 103.242 336.576C102.076 336.684 100.824 336.873 99.4853 337.144C98.1899 337.36 96.9808 337.658 95.8581 338.037C94.7354 338.362 94.0445 338.768 93.7854 339.255C93.5263 339.633 93.3104 340.364 93.1377 341.446C93.0081 342.475 92.8786 343.611 92.7491 344.856C92.6627 346.047 92.5979 347.21 92.5547 348.347C92.5116 349.429 92.49 350.214 92.49 350.701C92.49 351.134 92.49 351.783 92.49 352.649C92.5332 353.515 92.5979 354.408 92.6843 355.328C92.7706 356.248 92.857 357.114 92.9434 357.926C93.0729 358.738 93.2456 359.333 93.4615 359.712C93.5911 359.983 93.9797 360.226 94.6274 360.443C95.2751 360.659 96.0524 360.876 96.9592 361.092C97.9092 361.255 98.9024 361.39 99.9387 361.498C100.975 361.606 101.968 361.715 102.918 361.823C103.911 361.877 104.775 361.931 105.509 361.985C106.286 361.985 106.826 361.985 107.128 361.985C107.646 361.985 108.532 361.931 109.784 361.823C111.079 361.715 112.418 361.552 113.8 361.336C115.225 361.065 116.52 360.768 117.686 360.443C118.895 360.064 119.672 359.631 120.018 359.144C120.277 358.765 120.493 357.98 120.666 356.79C120.838 355.545 120.968 354.219 121.054 352.812C121.141 351.351 121.184 349.97 121.184 348.672C121.227 347.319 121.249 346.344 121.249 345.749Z" fill="#FF2B2B"/>
<path d="M187.834 348.59C187.834 350.16 187.834 351.811 187.834 353.542C187.834 355.274 187.682 356.925 187.38 358.494C187.164 359.685 186.927 360.74 186.668 361.66C186.409 362.526 186.085 363.338 185.696 364.096C185.308 364.799 184.833 365.476 184.271 366.125C183.71 366.721 183.019 367.316 182.198 367.911C181.939 368.128 181.249 368.426 180.126 368.804C179.003 369.129 177.6 369.535 175.916 370.022C174.275 370.509 172.418 371.023 170.345 371.565C168.316 372.106 166.222 372.647 164.062 373.188C161.947 373.675 159.831 374.189 157.715 374.731C155.642 375.218 153.742 375.678 152.015 376.111C150.331 376.49 148.884 376.841 147.675 377.166C146.509 377.437 145.732 377.599 145.344 377.653C144.609 367.749 143.919 357.926 143.271 348.184C142.623 338.443 142.127 328.593 141.781 318.635C145.408 318.797 149.014 318.986 152.598 319.203C156.182 319.365 159.809 319.609 163.48 319.934C164.43 320.042 165.811 320.177 167.625 320.339C169.482 320.502 171.403 320.745 173.39 321.07C175.376 321.341 177.233 321.692 178.96 322.125C180.73 322.558 182.004 323.1 182.781 323.749C183.775 324.669 184.66 325.914 185.437 327.483C186.214 329.053 186.776 330.595 187.121 332.111C187.294 332.814 187.423 333.924 187.51 335.439C187.596 336.9 187.661 338.47 187.704 340.148C187.747 341.825 187.769 343.449 187.769 345.018C187.812 346.588 187.834 347.779 187.834 348.59ZM171.706 349.646C171.706 349.05 171.684 348.428 171.641 347.779C171.641 347.075 171.619 346.426 171.576 345.83C171.49 344.964 171.36 344.071 171.187 343.151C171.058 342.177 170.863 341.257 170.604 340.391C170.345 339.471 170.021 338.632 169.633 337.875C169.244 337.063 168.769 336.359 168.208 335.764C167.906 335.439 167.172 335.196 166.006 335.033C164.84 334.817 163.566 334.681 162.184 334.627C160.802 334.519 159.507 334.465 158.298 334.465C157.089 334.411 156.311 334.384 155.966 334.384H153.31C153.656 338.605 153.958 342.772 154.217 346.886C154.519 350.945 154.779 355.085 154.994 359.306C155.815 359.252 156.981 359.117 158.492 358.9C160.047 358.63 161.623 358.305 163.22 357.926C164.818 357.493 166.308 356.979 167.69 356.384C169.071 355.734 170.065 354.977 170.669 354.111C171.144 353.461 171.425 352.785 171.511 352.081C171.641 351.323 171.706 350.512 171.706 349.646Z" fill="#FF2B2B"/>
<path d="M237.967 358.494L237.902 371.159C235.916 371.646 233.951 372.106 232.008 372.539C230.065 372.972 228.1 373.351 226.114 373.675C224.041 374 221.968 374.298 219.896 374.568C217.823 374.839 215.75 374.974 213.677 374.974C213.073 374.974 212.188 374.947 211.022 374.893C209.856 374.839 208.647 374.731 207.395 374.568C206.142 374.406 204.955 374.216 203.832 374C202.709 373.729 201.889 373.405 201.371 373.026C200.896 372.647 200.442 372.214 200.011 371.727C199.579 371.186 199.19 370.645 198.845 370.103C197.938 368.696 197.182 367.154 196.578 365.476C195.973 363.798 195.498 362.066 195.153 360.28C194.807 358.494 194.548 356.681 194.376 354.841C194.246 353.001 194.181 351.188 194.181 349.402C194.181 347.237 194.268 344.991 194.44 342.664C194.656 340.337 194.98 338.037 195.412 335.764C195.844 333.491 196.405 331.299 197.096 329.188C197.83 327.077 198.715 325.129 199.752 323.343C200.054 322.856 200.442 322.261 200.917 321.557C201.392 320.854 201.867 320.339 202.342 320.015C203.508 319.203 204.804 318.526 206.229 317.985C207.697 317.444 209.208 317.038 210.763 316.768C212.317 316.443 213.85 316.226 215.362 316.118C216.916 315.956 218.341 315.875 219.636 315.875C222.098 315.875 224.559 316.064 227.02 316.443C229.482 316.768 231.878 317.363 234.21 318.229C234.124 319.69 234.059 321.178 234.016 322.694C233.973 324.155 233.951 325.616 233.951 327.077C233.951 330.595 234.016 334.14 234.145 337.712C232.202 336.792 230.173 336.143 228.057 335.764C225.941 335.331 223.847 335.114 221.774 335.114C221.342 335.114 220.716 335.168 219.896 335.277C219.075 335.331 218.147 335.439 217.11 335.601C216.074 335.71 214.994 335.872 213.872 336.089C212.792 336.305 211.777 336.576 210.828 336.9C209.878 337.225 209.035 337.604 208.301 338.037C207.611 338.47 207.157 338.93 206.941 339.417C206.769 339.85 206.617 340.472 206.488 341.284C206.401 342.042 206.315 342.854 206.229 343.72C206.186 344.585 206.142 345.424 206.099 346.236C206.099 347.048 206.099 347.697 206.099 348.184C206.099 348.672 206.142 349.646 206.229 351.107C206.315 352.568 206.423 354.138 206.553 355.815C206.682 357.439 206.833 358.927 207.006 360.28C207.222 361.633 207.438 362.418 207.654 362.635C207.87 362.797 208.215 362.905 208.69 362.959C209.208 362.959 209.554 362.959 209.726 362.959C211.842 362.959 214.109 362.824 216.527 362.553C218.946 362.283 221.385 361.931 223.847 361.498C226.351 361.011 228.812 360.524 231.231 360.037C233.649 359.496 235.894 358.982 237.967 358.494Z" fill="#FF2B2B"/>
<path d="M286.092 377.491L276.247 379.358C275.556 376.598 274.865 373.865 274.174 371.159C273.483 368.399 272.814 365.638 272.166 362.878L256.232 363.609L254.224 374.406H244.25C244.854 365.205 245.48 356.059 246.128 346.967C246.776 337.875 247.402 328.755 248.006 319.609C251.115 318.959 254.203 318.418 257.269 317.985C260.378 317.552 263.508 317.336 266.661 317.336C270.504 317.336 274.347 317.417 278.19 317.579C278.881 323.208 279.55 328.836 280.198 334.465C280.889 340.039 281.601 345.641 282.335 351.269C282.853 355.707 283.415 360.091 284.019 364.421C284.667 368.75 285.358 373.107 286.092 377.491ZM269.899 351.838C269.856 351.351 269.748 350.458 269.575 349.159C269.403 347.806 269.208 346.399 268.992 344.937C268.776 343.422 268.517 342.069 268.215 340.878C267.956 339.633 267.697 338.903 267.438 338.686C267.351 338.632 267.136 338.578 266.79 338.524C266.488 338.47 266.142 338.416 265.754 338.362C265.408 338.307 265.063 338.28 264.717 338.28C264.372 338.28 264.134 338.28 264.005 338.28C263.789 338.28 263.487 338.28 263.098 338.28C262.753 338.28 262.364 338.307 261.932 338.362C261.544 338.362 261.155 338.416 260.766 338.524C260.421 338.632 260.183 338.768 260.054 338.93C259.967 338.984 259.86 339.336 259.73 339.985C259.6 340.635 259.428 341.446 259.212 342.421C259.039 343.341 258.845 344.342 258.629 345.424C258.456 346.507 258.283 347.535 258.111 348.509C257.938 349.483 257.787 350.322 257.657 351.026C257.571 351.729 257.506 352.135 257.463 352.244L269.899 351.838Z" fill="#FF2B2B"/>
<path d="M341.472 363.446C341.472 366.044 340.975 368.155 339.982 369.779C338.989 371.348 337.585 372.62 335.772 373.594C334.26 374.406 332.36 375.055 330.072 375.542C327.783 375.975 325.408 376.3 322.947 376.517C320.486 376.679 318.068 376.787 315.693 376.841C313.318 376.895 311.331 376.922 309.734 376.922C307.013 376.922 304.314 376.868 301.637 376.76C299.003 376.652 296.326 376.49 293.605 376.273C293.735 370.753 293.605 365.287 293.217 359.875C296.455 359.983 299.672 360.091 302.868 360.199C306.106 360.253 309.345 360.335 312.584 360.443C313.836 360.497 315.088 360.551 316.34 360.605C317.636 360.659 318.931 360.686 320.227 360.686C320.442 360.686 320.766 360.686 321.198 360.686C321.63 360.686 322.083 360.659 322.558 360.605C323.033 360.551 323.465 360.47 323.854 360.362C324.286 360.253 324.609 360.091 324.825 359.875C324.998 359.658 325.106 359.36 325.149 358.982C325.192 358.549 325.214 358.17 325.214 357.845C325.214 357.25 325.149 356.546 325.02 355.734C324.89 354.868 324.696 354.165 324.437 353.624C324.394 353.569 324.242 353.515 323.983 353.461C323.767 353.407 323.508 353.38 323.206 353.38C322.904 353.326 322.623 353.299 322.364 353.299C322.105 353.245 321.954 353.218 321.911 353.218C319.147 352.947 316.383 352.758 313.62 352.649C310.899 352.541 308.157 352.352 305.394 352.081C304.142 351.919 302.846 351.756 301.508 351.594C300.212 351.432 299.003 351.134 297.88 350.701C296.801 350.322 295.872 349.483 295.095 348.184C294.361 346.831 293.757 345.316 293.282 343.638C292.85 341.906 292.526 340.175 292.31 338.443C292.137 336.711 292.051 335.25 292.051 334.059C292.051 332.111 292.202 330.271 292.504 328.539C292.807 326.753 293.282 325.102 293.929 323.587C294.62 322.071 295.484 320.745 296.52 319.609C297.557 318.418 298.83 317.444 300.342 316.686C302.933 315.442 305.696 314.576 308.632 314.089C311.612 313.601 314.462 313.358 317.182 313.358C320.378 313.358 323.53 313.601 326.639 314.089C329.748 314.576 332.857 315.198 335.966 315.956C335.923 317.525 335.88 319.095 335.836 320.664C335.836 322.18 335.836 323.722 335.836 325.291C335.836 326.861 335.901 328.458 336.031 330.081C336.16 331.651 336.29 333.22 336.419 334.79C332.317 334.898 328.215 335.006 324.113 335.114C320.054 335.168 315.952 335.304 311.806 335.52C311.288 335.52 310.576 335.547 309.669 335.601C308.805 335.656 307.963 335.737 307.143 335.845C306.322 335.899 305.61 335.953 305.005 336.007C304.401 336.061 304.098 336.089 304.098 336.089C303.883 336.684 303.753 337.306 303.71 337.956C303.667 338.551 303.645 339.173 303.645 339.823C303.645 340.148 303.645 340.553 303.645 341.041C303.688 341.528 303.796 341.906 303.969 342.177C304.012 342.231 304.379 342.312 305.07 342.421C305.761 342.529 306.517 342.637 307.337 342.745C308.201 342.854 308.999 342.962 309.734 343.07C310.511 343.178 310.986 343.232 311.159 343.232C312.584 343.395 314.246 343.584 316.146 343.801C318.089 344.017 320.054 344.261 322.04 344.531C324.07 344.802 326.013 345.154 327.87 345.587C329.726 345.966 331.346 346.426 332.727 346.967C333.98 347.508 335.124 348.374 336.16 349.565C337.24 350.701 338.168 352.054 338.946 353.624C339.723 355.139 340.327 356.763 340.759 358.494C341.234 360.172 341.472 361.823 341.472 363.446Z" fill="#FF2B2B"/>
<path d="M385.192 330.487V336.17L372.691 336.982C372.519 340.121 372.389 343.232 372.303 346.317C372.216 349.402 372.173 352.487 372.173 355.572C372.173 359.36 372.087 363.149 371.914 366.937C371.785 370.672 371.612 374.406 371.396 378.14C369.842 378.248 368.287 378.33 366.733 378.384C365.178 378.492 363.623 378.546 362.069 378.546C361.508 378.546 360.946 378.519 360.385 378.465C359.867 378.465 359.349 378.465 358.83 378.465C358.917 375.164 358.982 371.889 359.025 368.642C359.111 365.341 359.154 362.066 359.154 358.819C359.154 355.572 359.089 352.325 358.96 349.077C358.83 345.776 358.679 342.475 358.507 339.173C357.254 339.228 355.98 339.282 354.685 339.336C353.433 339.39 352.159 339.417 350.863 339.417C350.129 339.417 349.395 339.417 348.661 339.417C347.97 339.417 347.258 339.39 346.524 339.336C346.394 335.331 346.308 331.353 346.265 327.402C346.222 323.451 346.178 319.501 346.135 315.55C352.612 315.712 359.046 315.956 365.437 316.28C371.828 316.551 378.24 316.795 384.674 317.011C384.847 319.338 384.976 321.611 385.063 323.83C385.149 325.995 385.192 328.214 385.192 330.487Z" fill="#FF2B2B"/>
<path d="M72.4651 279.273L72.3952 290.159C70.2507 290.577 68.1294 290.973 66.0315 291.345C63.9336 291.717 61.8124 292.043 59.6679 292.322C57.4301 292.601 55.1924 292.857 52.9546 293.09C50.7169 293.322 48.4791 293.438 46.2413 293.438C45.5887 293.438 44.6329 293.415 43.3742 293.369C42.1155 293.322 40.8101 293.229 39.4581 293.09C38.1061 292.95 36.8241 292.787 35.612 292.601C34.3998 292.368 33.5141 292.089 32.9546 291.764C32.4418 291.438 31.9523 291.066 31.4861 290.647C31.0199 290.182 30.6003 289.717 30.2273 289.252C29.2483 288.042 28.4325 286.716 27.7798 285.274C27.1271 283.832 26.6143 282.343 26.2413 280.808C25.8684 279.273 25.5887 277.714 25.4022 276.132C25.2623 274.551 25.1924 272.992 25.1924 271.457C25.1924 269.596 25.2856 267.666 25.4721 265.665C25.7052 263.665 26.0549 261.688 26.5211 259.734C26.9873 257.78 27.5933 255.896 28.3392 254.081C29.1318 252.267 30.0875 250.592 31.2064 249.057C31.5327 248.638 31.9523 248.127 32.4651 247.522C32.9779 246.917 33.4908 246.475 34.0036 246.196C35.2623 245.498 36.6609 244.917 38.1994 244.451C39.7845 243.986 41.4162 243.637 43.0945 243.405C44.7728 243.126 46.4278 242.939 48.0595 242.846C49.7378 242.707 51.2763 242.637 52.6749 242.637C55.3322 242.637 57.9896 242.8 60.6469 243.126C63.3043 243.405 65.8917 243.916 68.4092 244.661C68.3159 245.917 68.246 247.196 68.1994 248.499C68.1528 249.755 68.1294 251.011 68.1294 252.267C68.1294 255.291 68.1994 258.338 68.3392 261.408C66.2413 260.618 64.0502 260.059 61.7658 259.734C59.4814 259.362 57.2204 259.175 54.9826 259.175C54.5164 259.175 53.8404 259.222 52.9546 259.315C52.0688 259.362 51.0665 259.455 49.9476 259.594C48.8287 259.687 47.6632 259.827 46.4511 260.013C45.2856 260.199 44.1901 260.431 43.1644 260.711C42.1388 260.99 41.2297 261.315 40.4371 261.688C39.6912 262.06 39.2017 262.455 38.9686 262.874C38.7821 263.246 38.619 263.781 38.4791 264.479C38.3859 265.13 38.2926 265.828 38.1994 266.572C38.1528 267.317 38.1061 268.038 38.0595 268.736C38.0595 269.433 38.0595 269.992 38.0595 270.41C38.0595 270.829 38.1061 271.666 38.1994 272.923C38.2926 274.179 38.4092 275.528 38.549 276.97C38.6889 278.366 38.8521 279.645 39.0385 280.808C39.2716 281.971 39.5047 282.645 39.7378 282.832C39.9709 282.971 40.3439 283.064 40.8567 283.111C41.4162 283.111 41.7891 283.111 41.9756 283.111C44.26 283.111 46.7075 282.994 49.3183 282.762C51.929 282.529 54.563 282.227 57.2204 281.855C59.9243 281.436 62.5817 281.017 65.1924 280.599C67.8031 280.133 70.2273 279.691 72.4651 279.273Z" fill="black"/>
<path d="M131.067 272.783C131.067 275.435 130.997 278.063 130.857 280.668C130.763 283.274 130.53 285.902 130.157 288.554C129.412 289.112 128.666 289.647 127.92 290.159C127.174 290.624 126.405 291.136 125.612 291.694C124.959 292.113 124.237 292.601 123.444 293.159C122.698 293.671 121.906 294.183 121.067 294.695C120.227 295.206 119.365 295.648 118.479 296.02C117.64 296.439 116.847 296.718 116.101 296.858C115.402 297.044 114.47 297.114 113.304 297.067C112.139 297.067 111.16 297.067 110.367 297.067C108.409 297.16 106.451 297.23 104.493 297.277C102.535 297.323 100.53 297.346 98.4791 297.346C97.5467 297.346 96.4744 297.346 95.2623 297.346C94.0502 297.393 92.9546 297.3 91.9756 297.067C91.6959 297.021 91.2297 296.788 90.577 296.369C89.9243 295.997 89.1784 295.532 88.3392 294.974C87.5467 294.369 86.7075 293.741 85.8218 293.09C84.936 292.392 84.0735 291.74 83.2343 291.136C82.4418 290.484 81.7425 289.926 81.1364 289.461C80.577 288.949 80.1807 288.6 79.9476 288.414C79.7145 285.949 79.5281 283.506 79.3882 281.087C79.295 278.621 79.2483 276.156 79.2483 273.69C79.2483 268.898 79.4115 264.153 79.7378 259.455C80.1108 254.756 80.5071 250.034 80.9267 245.289L95.3322 244.94C94.866 247.917 94.5397 251.081 94.3532 254.43C94.1667 257.733 94.0735 260.92 94.0735 263.99C94.0735 264.502 94.0968 265.409 94.1434 266.712C94.1901 267.968 94.2833 269.317 94.4232 270.759C94.563 272.201 94.7262 273.527 94.9127 274.737C95.1458 275.946 95.4255 276.737 95.7518 277.109C95.8917 277.249 96.2413 277.389 96.8008 277.528C97.4068 277.621 98.1061 277.714 98.8987 277.807C99.7378 277.9 100.624 277.97 101.556 278.017C102.488 278.063 103.374 278.11 104.213 278.156C105.053 278.156 105.798 278.179 106.451 278.226C107.104 278.226 107.57 278.226 107.85 278.226C108.083 278.226 108.479 278.226 109.039 278.226C109.598 278.226 110.157 278.226 110.717 278.226C111.323 278.179 111.882 278.133 112.395 278.086C112.908 278.04 113.258 277.947 113.444 277.807C114.004 277.435 114.423 276.528 114.703 275.086C114.983 273.644 115.192 272.062 115.332 270.341C115.472 268.619 115.542 266.968 115.542 265.386C115.542 263.804 115.542 262.665 115.542 261.967C115.542 260.897 115.542 259.827 115.542 258.757C115.589 257.687 115.612 256.617 115.612 255.547C115.612 253.36 115.589 251.22 115.542 249.127C115.495 246.987 115.425 244.824 115.332 242.637C116.311 242.73 117.267 242.8 118.199 242.846C119.178 242.846 120.157 242.846 121.136 242.846C122.302 242.846 123.444 242.823 124.563 242.777C125.729 242.73 126.871 242.591 127.99 242.358C128.969 247.336 129.715 252.383 130.227 257.501C130.787 262.571 131.067 267.666 131.067 272.783Z" fill="black"/>
<path d="M174.773 294.067C169.225 294.485 163.701 294.881 158.199 295.253C152.745 295.625 147.244 295.974 141.696 296.3C141.463 287.414 141.276 278.598 141.136 269.852C140.997 261.06 140.74 252.197 140.367 243.265C143.491 243.219 146.568 243.126 149.598 242.986C152.628 242.846 155.682 242.66 158.759 242.428C158.246 245.87 157.756 249.336 157.29 252.825C156.871 256.268 156.544 259.734 156.311 263.223C156.125 266.154 155.962 269.084 155.822 272.015C155.729 274.9 155.635 277.807 155.542 280.738C158.619 280.831 161.649 280.878 164.633 280.878C167.663 280.878 170.694 280.924 173.724 281.017L174.773 294.067Z" fill="black"/>
<path d="M216.941 255.198V260.083L203.444 260.78C203.258 263.479 203.118 266.154 203.025 268.805C202.931 271.457 202.885 274.109 202.885 276.761C202.885 280.017 202.791 283.274 202.605 286.53C202.465 289.74 202.279 292.95 202.046 296.16C200.367 296.253 198.689 296.323 197.011 296.369C195.332 296.462 193.654 296.509 191.976 296.509C191.37 296.509 190.763 296.486 190.157 296.439C189.598 296.439 189.039 296.439 188.479 296.439C188.572 293.601 188.642 290.787 188.689 287.995C188.782 285.158 188.829 282.343 188.829 279.552C188.829 276.761 188.759 273.969 188.619 271.178C188.479 268.34 188.316 265.502 188.129 262.665C186.777 262.711 185.402 262.758 184.004 262.804C182.652 262.851 181.276 262.874 179.878 262.874C179.085 262.874 178.293 262.874 177.5 262.874C176.754 262.874 175.985 262.851 175.192 262.804C175.053 259.362 174.959 255.942 174.913 252.546C174.866 249.15 174.819 245.754 174.773 242.358C181.766 242.497 188.712 242.707 195.612 242.986C202.512 243.219 209.435 243.428 216.381 243.614C216.568 245.614 216.708 247.568 216.801 249.476C216.894 251.337 216.941 253.244 216.941 255.198Z" fill="black"/>
<path d="M277.011 272.783C277.011 275.435 276.941 278.063 276.801 280.668C276.708 283.274 276.474 285.902 276.101 288.554C275.356 289.112 274.61 289.647 273.864 290.159C273.118 290.624 272.349 291.136 271.556 291.694C270.903 292.113 270.181 292.601 269.388 293.159C268.642 293.671 267.85 294.183 267.011 294.695C266.171 295.206 265.309 295.648 264.423 296.02C263.584 296.439 262.791 296.718 262.046 296.858C261.346 297.044 260.414 297.114 259.248 297.067C258.083 297.067 257.104 297.067 256.311 297.067C254.353 297.16 252.395 297.23 250.437 297.277C248.479 297.323 246.474 297.346 244.423 297.346C243.491 297.346 242.418 297.346 241.206 297.346C239.994 297.393 238.899 297.3 237.92 297.067C237.64 297.021 237.174 296.788 236.521 296.369C235.868 295.997 235.122 295.532 234.283 294.974C233.491 294.369 232.652 293.741 231.766 293.09C230.88 292.392 230.018 291.74 229.178 291.136C228.386 290.484 227.687 289.926 227.08 289.461C226.521 288.949 226.125 288.6 225.892 288.414C225.659 285.949 225.472 283.506 225.332 281.087C225.239 278.621 225.192 276.156 225.192 273.69C225.192 268.898 225.356 264.153 225.682 259.455C226.055 254.756 226.451 250.034 226.871 245.289L241.276 244.94C240.81 247.917 240.484 251.081 240.297 254.43C240.111 257.733 240.018 260.92 240.018 263.99C240.018 264.502 240.041 265.409 240.087 266.712C240.134 267.968 240.227 269.317 240.367 270.759C240.507 272.201 240.67 273.527 240.857 274.737C241.09 275.946 241.37 276.737 241.696 277.109C241.836 277.249 242.185 277.389 242.745 277.528C243.351 277.621 244.05 277.714 244.843 277.807C245.682 277.9 246.568 277.97 247.5 278.017C248.432 278.063 249.318 278.11 250.157 278.156C250.997 278.156 251.743 278.179 252.395 278.226C253.048 278.226 253.514 278.226 253.794 278.226C254.027 278.226 254.423 278.226 254.983 278.226C255.542 278.226 256.101 278.226 256.661 278.226C257.267 278.179 257.826 278.133 258.339 278.086C258.852 278.04 259.202 277.947 259.388 277.807C259.948 277.435 260.367 276.528 260.647 275.086C260.927 273.644 261.136 272.062 261.276 270.341C261.416 268.619 261.486 266.968 261.486 265.386C261.486 263.804 261.486 262.665 261.486 261.967C261.486 260.897 261.486 259.827 261.486 258.757C261.533 257.687 261.556 256.617 261.556 255.547C261.556 253.36 261.533 251.22 261.486 249.127C261.439 246.987 261.37 244.824 261.276 242.637C262.255 242.73 263.211 242.8 264.143 242.846C265.122 242.846 266.101 242.846 267.081 242.846C268.246 242.846 269.388 242.823 270.507 242.777C271.673 242.73 272.815 242.591 273.934 242.358C274.913 247.336 275.659 252.383 276.171 257.501C276.731 262.571 277.011 267.666 277.011 272.783Z" fill="black"/>
<path d="M337.5 260.711C337.5 264.525 336.335 267.526 334.004 269.713C331.673 271.899 328.596 273.085 324.773 273.271C329.388 280.947 333.421 288.81 336.871 296.858L316.451 297.346C316.078 293.578 315.519 290.112 314.773 286.949C314.027 283.785 312.978 280.459 311.626 276.97C310.087 277.063 308.549 277.179 307.011 277.319C305.519 277.458 304.027 277.575 302.535 277.668L302.885 293.508C300.227 293.648 297.57 293.718 294.913 293.718C293.561 293.718 292.232 293.694 290.927 293.648C289.668 293.601 288.386 293.508 287.081 293.369C287.407 289.089 287.71 284.832 287.99 280.599C288.269 276.319 288.433 272.062 288.479 267.828C288.619 260.292 288.829 252.755 289.108 245.219C293.491 244.986 297.85 244.731 302.185 244.451C306.568 244.172 310.95 244.033 315.332 244.033C316.451 244.033 317.663 244.056 318.969 244.102C320.274 244.149 321.579 244.289 322.885 244.521C324.237 244.707 325.519 244.986 326.731 245.359C327.99 245.731 329.108 246.219 330.088 246.824C332.465 248.313 334.283 250.313 335.542 252.825C336.847 255.291 337.5 257.919 337.5 260.711ZM321.276 259.594C321.276 259.222 321.253 258.71 321.206 258.059C321.206 257.408 321.16 256.756 321.067 256.105C320.973 255.407 320.833 254.779 320.647 254.221C320.46 253.616 320.204 253.174 319.878 252.895C319.645 252.709 319.248 252.569 318.689 252.476C318.129 252.383 317.523 252.314 316.871 252.267C316.265 252.174 315.659 252.127 315.053 252.127C314.493 252.081 314.097 252.058 313.864 252.058C311.999 252.058 310.157 252.151 308.339 252.337C306.568 252.523 304.796 252.755 303.025 253.035L304.913 266.572C305.938 266.805 307.011 266.968 308.129 267.061C309.248 267.154 310.344 267.2 311.416 267.2C311.882 267.2 312.558 267.177 313.444 267.131C314.377 267.084 315.309 266.991 316.241 266.851C317.22 266.712 318.106 266.526 318.899 266.293C319.738 266.014 320.321 265.665 320.647 265.246C320.787 265.06 320.903 264.711 320.997 264.2C321.09 263.641 321.136 263.083 321.136 262.525C321.183 261.92 321.206 261.339 321.206 260.78C321.253 260.222 321.276 259.827 321.276 259.594Z" fill="black"/>
<path d="M385.192 253.314C380.624 253.546 376.078 253.802 371.556 254.081C367.081 254.314 362.558 254.616 357.99 254.988L357.85 260.501L375.892 259.455C376.125 261.036 376.288 262.595 376.381 264.13C376.521 265.665 376.591 267.224 376.591 268.805C376.591 269.457 376.568 270.131 376.521 270.829C376.521 271.527 376.521 272.201 376.521 272.853L359.738 275.853L360.787 284.506C364.33 284.274 367.85 283.948 371.346 283.529C374.889 283.064 378.456 282.669 382.046 282.343C382.372 284.669 382.698 287.019 383.025 289.391C383.351 291.717 383.817 293.997 384.423 296.23C377.803 296.183 371.23 296.183 364.703 296.23C358.176 296.323 351.603 296.369 344.983 296.369C345.122 290.926 345.286 285.507 345.472 280.11C345.659 274.714 345.752 269.271 345.752 263.781V262.455C345.752 259.292 345.705 256.152 345.612 253.035C345.519 249.871 345.425 246.684 345.332 243.474C349.015 243.521 352.675 243.544 356.311 243.544C359.994 243.498 363.701 243.474 367.43 243.474C370.274 243.474 373.095 243.544 375.892 243.684C378.736 243.777 381.579 243.893 384.423 244.033L385.192 253.314Z" fill="black"/>
</svg>
