<svg width="472" height="266" viewBox="0 0 472 266" fill="none" xmlns="http://www.w3.org/2000/svg">
<rect x="18.5083" y="36.1636" width="404.078" height="179.454" fill="black"/>
<path d="M443.269 255.485C419.918 253.651 396.677 251.732 373.546 249.727C350.609 247.752 327.491 245.646 304.192 243.408C308.159 204.633 312.282 166.192 316.56 128.085C320.864 89.7758 324.721 51.0865 328.131 12.0172C341.173 13.8719 354.047 15.4938 366.752 16.8827C379.457 18.2717 392.286 19.4738 405.237 20.489C401.187 35.1146 397.22 49.8567 393.338 64.7152C389.677 79.4022 386.39 94.2517 383.48 109.264C381.074 121.88 378.765 134.512 376.553 147.158C374.562 159.634 372.557 172.21 370.54 184.888C383.31 187.319 395.912 189.517 408.345 191.481C420.973 193.477 433.575 195.675 446.151 198.075L443.269 255.485Z" fill="white" stroke="black" stroke-width="9.02783"/>
<path d="M122.496 6.06164C122.759 18.4132 123.563 30.7011 124.91 42.9253C126.237 54.9487 127.293 67.004 128.079 79.0912L97.9053 81.423C98.3936 88.4703 98.8724 95.4172 99.3416 102.264C99.9913 109.089 100.651 116.015 101.319 123.041C102.122 131.472 102.915 139.803 103.699 148.034C104.643 156.042 105.607 164.251 106.591 172.661L134.269 170.014C134.462 175.878 134.846 181.821 135.419 187.844C135.992 193.866 136.565 199.888 137.139 205.911C137.616 210.929 138.185 215.937 138.843 220.935C139.682 225.911 140.782 230.755 142.143 235.466L45.0984 248.71C44.162 238.874 43.1545 229.249 42.0758 219.835C40.978 210.22 39.6902 200.527 38.2122 190.754L55.7854 188.382C53.0865 169.618 50.2261 151.076 47.2043 132.757C44.363 114.416 41.422 95.9848 38.3811 77.4642L12.3113 76.8774C11.1476 68.4886 9.9935 60.2001 8.84895 52.0121C7.86582 43.6021 6.79242 35.2027 5.62876 26.8139C25.2303 23.6958 44.6418 20.4987 63.8632 17.2224C83.246 13.7241 102.79 10.0039 122.496 6.06164Z" fill="white" stroke="black" stroke-width="10"/>
<path d="M239.787 14.0881C243.952 14.2107 248.448 14.4393 253.274 14.7732C258.25 15.1177 263.213 15.8561 268.159 16.9845C273.274 17.9286 278.143 19.2593 282.758 20.9849C287.366 22.652 291.542 24.7757 295.253 27.3757L295.99 27.9025L296.001 27.9106L296.012 27.9187C305.218 34.7254 312.143 43.6991 316.793 54.7258L317.235 55.7402C321.739 66.2443 323.848 77.3402 323.571 88.9824C323.181 105.36 318.35 118.647 308.625 128.286C300.441 136.397 290.201 141.117 278.131 142.579C293.167 172.75 306.292 203.543 317.501 234.958L319.543 240.679L313.481 240.662L238.613 240.455L234.589 240.444L234.328 236.425C233.337 221.142 231.643 207.103 229.253 194.3C227.041 182.443 223.895 169.968 219.813 156.87C215.31 157.07 210.805 157.329 206.298 157.651L206.299 157.652C202.128 157.963 197.959 158.219 193.79 158.421L193.547 219.078L193.531 223.199L189.413 223.32C179.58 223.605 169.753 223.604 159.933 223.315C154.924 223.167 150.001 222.926 145.164 222.591L145.158 222.591C140.435 222.257 135.636 221.727 130.762 221.001L126.731 220.399L127.105 216.345C128.716 198.918 130.239 181.583 131.675 164.342C133.11 146.966 134.118 129.674 134.698 112.465L134.698 112.45L134.699 112.435C135.945 81.6552 137.448 50.8823 139.207 20.1173L139.429 16.2199L143.331 16.1041C159.393 15.6275 175.372 15.0531 191.267 14.3817L191.271 14.3818C207.456 13.7105 223.629 13.6126 239.787 14.0881ZM233.422 55.2599C226.748 55.0635 220.154 55.2406 213.638 55.7904L213.637 55.7894C208.556 56.2336 203.473 56.7975 198.385 57.4762L203.275 105.887C205.932 106.521 208.69 107.016 211.55 107.366C215.516 107.851 219.395 108.149 223.186 108.26C224.767 108.307 227.146 108.287 230.373 108.193L230.385 108.194C233.648 108.108 236.917 107.841 240.194 107.393L240.21 107.39L240.227 107.389C243.608 106.953 246.618 106.337 249.272 105.559C251.823 104.685 253.045 103.754 253.58 103.085C253.607 103.026 253.676 102.874 253.768 102.591C253.922 102.121 254.092 101.449 254.265 100.535C254.621 98.4824 254.824 96.4291 254.873 94.374L254.877 94.2266L254.89 94.0785C255.111 91.7042 255.247 89.4312 255.299 87.2585L255.302 87.0984L255.319 86.9387C255.544 84.665 255.652 83.1957 255.671 82.4227C255.704 81.038 255.672 79.0508 255.566 76.421L255.56 76.2841L255.563 76.1465C255.622 73.6713 255.522 71.1899 255.263 68.7009L255.261 68.6823L255.26 68.6647C255.005 66.0022 254.59 63.6708 254.038 61.6512L254.015 61.5626C253.519 59.589 252.932 58.5987 252.533 58.1494C252.474 58.1114 252.344 58.0349 252.114 57.9368C251.714 57.7663 251.119 57.5749 250.283 57.3944C248.407 56.9898 246.341 56.6622 244.081 56.4157L243.889 56.3944L243.699 56.3566C241.722 55.9585 239.747 55.7313 237.771 55.6731L237.573 55.6673L237.377 55.643C235.331 55.3927 234.057 55.2786 233.422 55.2599Z" fill="white" stroke="black" stroke-width="8.56631"/>
</svg>
