<svg width="789" height="197" viewBox="0 0 789 197" fill="none" xmlns="http://www.w3.org/2000/svg">
<rect x="14.4663" y="27.3447" width="303.595" height="132.431" fill="#FF2B2B"/>
<path d="M333.601 189.196C316.057 187.843 298.595 186.427 281.216 184.947C263.983 183.49 246.614 181.936 229.108 180.284C232.089 151.669 235.187 123.301 238.401 95.1792C241.635 66.9083 244.532 38.3568 247.095 9.52487C256.894 10.8936 266.566 12.0905 276.112 13.1155C285.658 14.1405 295.296 15.0276 305.026 15.7768C301.983 26.5701 299.003 37.4492 296.087 48.4143C293.336 59.2529 290.867 70.2113 288.68 81.2897C286.872 90.6001 285.137 99.9218 283.476 109.255C281.979 118.461 280.473 127.742 278.957 137.098C288.552 138.892 298.02 140.514 307.362 141.964C316.849 143.436 326.317 145.058 335.766 146.829L333.601 189.196Z" fill="white" stroke="#FF2B2B" stroke-width="7.66376"/>
<path d="M92.5953 5.12946C92.7929 14.2446 93.3974 23.3126 94.4089 32.3337C95.4059 41.2066 96.1996 50.103 96.7897 59.0229L74.1197 60.7437C74.4866 65.9444 74.8463 71.071 75.1988 76.1236C75.687 81.1604 76.1823 86.2713 76.6848 91.4564C77.2878 97.6784 77.8837 103.826 78.4723 109.9C79.1823 115.81 79.9066 121.868 80.6452 128.075L101.441 126.121C101.586 130.449 101.874 134.834 102.305 139.279C102.735 143.723 103.166 148.167 103.597 152.612C103.956 156.315 104.383 160.011 104.877 163.699C105.507 167.371 106.334 170.946 107.357 174.423L34.4444 184.196C33.7409 176.937 32.9839 169.834 32.1735 162.887C31.3487 155.792 30.3811 148.638 29.2706 141.426L42.4739 139.676C40.4461 125.829 38.297 112.146 36.0266 98.6263C33.8919 85.0912 31.6822 71.4899 29.3975 57.8223L9.81052 57.3892C8.93623 51.1985 8.06912 45.0819 7.20918 39.0394C6.47053 32.8331 5.66406 26.6346 4.78977 20.4439C19.517 18.1429 34.1013 15.7835 48.5429 13.3657C63.1057 10.7841 77.7899 8.03871 92.5953 5.12946Z" fill="white" stroke="#FF2B2B" stroke-width="8.48904"/>
<path d="M180.731 10.5783C183.865 10.6689 187.248 10.8379 190.878 11.0846C194.63 11.3397 198.372 11.8862 202.101 12.721C205.963 13.421 209.64 14.4084 213.129 15.6893L213.822 15.9419C217.269 17.2275 220.393 18.8556 223.168 20.8448L223.187 20.859C230.165 25.9268 235.419 32.6126 238.947 40.8254C242.592 48.8688 244.303 57.3869 244.086 66.3348C243.79 78.5278 240.124 88.4696 232.71 95.687C226.63 101.606 219.07 105.094 210.209 106.267C221.382 128.349 231.145 150.883 239.495 173.868L241.267 178.746L236.086 178.732L179.836 178.58L176.426 178.57L176.201 175.166C175.457 163.906 174.187 153.567 172.397 144.143C170.757 135.516 168.433 126.439 165.422 116.911C162.144 117.056 158.864 117.242 155.583 117.472L155.584 117.473C152.581 117.693 149.579 117.875 146.577 118.021L146.397 162.331L146.382 165.834L142.882 165.934C135.487 166.145 128.096 166.143 120.711 165.93C116.943 165.821 113.24 165.643 109.601 165.396L109.596 165.396C106.039 165.149 102.423 164.756 98.7526 164.218L95.3185 163.716L95.6435 160.264C96.8535 147.405 97.9971 134.614 99.0755 121.891C100.153 109.077 100.91 96.3252 101.345 83.6346L101.345 83.6219L101.347 83.6092C102.283 60.8915 103.412 38.179 104.733 15.4724L104.926 12.1621L108.24 12.0654C120.306 11.7137 132.31 11.2903 144.251 10.7949L144.254 10.795C156.423 10.2992 168.582 10.2271 180.731 10.5783ZM175.925 41.9112C170.924 41.7666 165.984 41.8968 161.102 42.3014L160.892 42.3188L160.682 42.3127C157.934 42.2217 156.453 42.5812 155.642 42.9857C154.979 43.3169 154.538 43.784 154.155 44.7101C153.709 45.7873 153.422 47.3027 153.157 49.5738C152.913 51.6628 152.676 54.5353 152.258 57.472C151.498 62.8113 151.87 68.5304 152.469 73.0088C152.76 75.1858 153.098 77.0274 153.365 78.3318C155.349 78.7966 157.41 79.1591 159.549 79.4161C162.518 79.773 165.421 79.9913 168.258 80.0733C169.435 80.1074 171.215 80.0938 173.638 80.0246L173.647 80.0249C176.085 79.9623 178.529 79.7658 180.978 79.4367L181.006 79.4336C183.527 79.1142 185.766 78.6639 187.736 78.0972C189.559 77.4838 190.393 76.85 190.74 76.449C190.76 76.4011 190.793 76.3211 190.833 76.2006C190.939 75.8821 191.06 75.41 191.187 74.7513C191.45 73.2639 191.6 71.7774 191.636 70.2898L191.64 70.1619L191.651 70.0342C191.817 68.2934 191.918 66.6281 191.956 65.0381L191.96 64.9004L191.974 64.7621C192.143 63.084 192.222 62.0175 192.235 61.4695C192.26 60.4647 192.237 59.012 192.157 57.0758L192.152 56.9565L192.155 56.8383C192.199 55.0349 192.125 53.226 191.932 51.4117L191.93 51.397L191.929 51.3813C191.74 49.4412 191.434 47.7508 191.028 46.2947L191.018 46.2572L191.008 46.2188C190.669 44.8945 190.286 44.2441 190.051 43.9598C190.011 43.9373 189.942 43.9024 189.838 43.8589C189.565 43.7447 189.143 43.6091 188.529 43.4791C187.134 43.1834 185.594 42.9431 183.906 42.7622L183.746 42.7449L183.588 42.714C182.121 42.424 180.657 42.258 179.193 42.2157L179.028 42.2109L178.865 42.1915C177.328 42.0069 176.385 41.9245 175.925 41.9112Z" fill="white" stroke="#FF2B2B" stroke-width="7.27197"/>
<path d="M649.671 117.655C649.671 118.972 649.342 120.321 648.684 121.704C648.026 123.02 647.269 124.205 646.413 125.258H630.811C629.166 120.65 628.343 116.075 628.343 111.533C628.343 109.097 628.902 106.761 630.021 104.522C631.141 102.218 632.26 100.046 633.379 98.0053L644.142 97.8079C643.483 98.5978 642.792 99.4207 642.068 100.276C641.41 101.132 640.784 102.021 640.192 102.942C639.6 103.798 639.106 104.72 638.711 105.707C638.382 106.629 638.217 107.649 638.217 108.768C638.217 109.295 638.25 109.69 638.316 109.953L647.696 110.052C647.894 110.513 648.091 111.072 648.289 111.731C648.552 112.389 648.783 113.08 648.98 113.804C649.178 114.528 649.342 115.252 649.474 115.976C649.605 116.635 649.671 117.194 649.671 117.655ZM713.459 148.759C713.327 152.709 713.228 156.658 713.163 160.608C713.097 164.558 712.965 168.507 712.768 172.457L661.125 174.333C660.796 169.33 660.401 164.36 659.94 159.423C659.545 154.42 659.151 149.384 658.756 144.316C661.389 143.328 664.088 142.242 666.852 141.057C669.617 139.806 672.316 138.424 674.949 136.91C677.582 135.396 680.117 133.75 682.552 131.973C684.988 130.195 687.16 128.253 689.069 126.147C690.057 125.028 690.913 123.942 691.637 122.888C692.427 121.769 692.822 120.453 692.822 118.939C692.822 115.384 692.098 113.047 690.649 111.928C689.267 110.743 687.029 110.151 683.935 110.151C682.618 110.151 681.269 110.184 679.886 110.249C678.57 110.249 677.319 110.348 676.134 110.546C674.225 110.875 673.04 111.5 672.579 112.422C672.185 113.343 671.987 114.693 671.987 116.47C671.987 116.997 671.987 117.556 671.987 118.149C672.053 118.741 672.119 119.334 672.185 119.926L656.879 122C656.484 119.037 656.287 116.108 656.287 113.212C656.287 112.488 656.32 111.434 656.386 110.052C656.517 108.67 656.715 107.254 656.978 105.806C657.307 104.358 657.702 103.008 658.163 101.758C658.624 100.507 659.249 99.6511 660.039 99.1903C661.224 98.4661 663.1 97.8408 665.668 97.3141C668.235 96.7875 670.967 96.3926 673.863 96.1292C676.825 95.8001 679.656 95.5697 682.355 95.438C685.054 95.3064 687.128 95.2406 688.576 95.2406C691.077 95.2406 693.414 95.3064 695.586 95.438C697.825 95.5697 699.832 95.9976 701.61 96.7217C703.453 97.38 705.033 98.4991 706.349 100.079C707.666 101.593 708.653 103.732 709.312 106.497C709.641 108.011 709.838 109.558 709.904 111.138C709.97 112.718 710.003 114.265 710.003 115.779C710.003 116.371 709.97 117.161 709.904 118.149C709.904 119.136 709.871 120.157 709.805 121.21C709.74 122.263 709.608 123.25 709.41 124.172C709.213 125.094 708.983 125.851 708.719 126.443C708.324 127.167 707.534 128.122 706.349 129.307C705.23 130.426 703.98 131.578 702.597 132.763C701.215 133.882 699.865 134.968 698.549 136.021C697.232 137.009 696.212 137.766 695.488 138.292C694.369 139.082 693.184 139.839 691.933 140.563C690.748 141.222 689.596 141.913 688.477 142.637C686.305 143.888 684.099 145.138 681.861 146.389C679.689 147.574 677.484 148.759 675.246 149.944C687.95 149.746 700.688 149.351 713.459 148.759ZM784.06 126.147L759.868 127.924C759.934 126.739 759.967 125.522 759.967 124.271C760.032 123.02 760.065 121.802 760.065 120.617C760.065 120.486 760.065 120.058 760.065 119.334C760.065 118.544 760.032 117.721 759.967 116.865C759.901 115.944 759.835 115.121 759.769 114.397C759.703 113.672 759.604 113.245 759.473 113.113C759.21 112.981 758.815 112.883 758.288 112.817C757.827 112.685 757.333 112.619 756.807 112.619C756.28 112.553 755.754 112.52 755.227 112.52C754.766 112.52 754.404 112.52 754.141 112.52C751.639 112.52 749.533 112.652 747.821 112.915C746.11 113.179 744.727 113.738 743.674 114.594C742.687 115.45 741.962 116.701 741.502 118.346C741.041 119.926 740.811 122.033 740.811 124.666C740.811 127.299 740.876 129.932 741.008 132.565C741.14 135.133 741.271 137.7 741.403 140.267C742.259 139.411 743.477 138.72 745.056 138.194C746.702 137.601 748.414 137.14 750.191 136.811C752.034 136.482 753.845 136.252 755.622 136.12C757.399 135.988 758.946 135.922 760.263 135.922C761.119 135.922 762.435 135.988 764.212 136.12C766.056 136.186 767.932 136.383 769.841 136.712C771.816 136.976 773.593 137.404 775.173 137.996C776.819 138.523 777.839 139.28 778.234 140.267C778.629 141.123 778.958 142.407 779.221 144.118C779.55 145.764 779.814 147.541 780.011 149.45C780.209 151.293 780.373 153.104 780.505 154.881C780.637 156.593 780.702 157.909 780.702 158.831C780.702 159.818 780.637 160.937 780.505 162.188C780.439 163.373 780.242 164.426 779.913 165.348C778.859 168.112 777.148 170.515 774.778 172.556C772.474 174.597 769.94 175.979 767.175 176.703C765.661 177.098 764.015 177.296 762.238 177.296C760.46 177.361 758.782 177.394 757.202 177.394C755.819 177.394 754.075 177.361 751.968 177.296C749.928 177.23 747.788 177.065 745.55 176.802C743.378 176.604 741.304 176.308 739.329 175.913C737.355 175.518 735.775 174.992 734.59 174.333C731.101 172.49 728.435 170.318 726.592 167.816C724.814 165.249 723.695 162.023 723.234 158.139C723.103 157.218 723.037 156.296 723.037 155.375C723.037 154.453 723.037 153.532 723.037 152.61C723.037 151.162 723.07 149.286 723.136 146.982C723.201 144.678 723.3 142.176 723.432 139.477C723.563 136.712 723.728 133.849 723.926 130.887C724.189 127.924 724.452 125.127 724.715 122.493C725.045 119.86 725.407 117.491 725.802 115.384C726.262 113.212 726.789 111.533 727.382 110.348C728.764 107.518 730.278 105.312 731.924 103.732C733.569 102.153 735.413 101.033 737.453 100.375C739.494 99.6511 741.699 99.2232 744.069 99.0915C746.505 98.9599 749.204 98.894 752.166 98.894C753.614 98.894 755.688 98.9269 758.387 98.9928C761.151 98.9928 763.982 99.0915 766.879 99.289C769.775 99.4207 772.474 99.684 774.975 100.079C777.477 100.474 779.221 101.066 780.209 101.856C780.67 102.251 781.064 103.041 781.394 104.226C781.789 105.411 782.118 106.826 782.381 108.472C782.644 110.052 782.875 111.796 783.072 113.705C783.27 115.549 783.434 117.326 783.566 119.037C783.763 120.683 783.895 122.164 783.961 123.481C784.027 124.732 784.06 125.62 784.06 126.147ZM764.607 154.289C764.607 152.643 764.443 151.326 764.114 150.339C763.85 149.286 763.39 148.496 762.731 147.969C762.139 147.442 761.283 147.08 760.164 146.883C759.111 146.685 757.794 146.587 756.214 146.587C755.556 146.587 754.371 146.685 752.66 146.883C751.014 147.015 749.269 147.212 747.426 147.475C745.649 147.739 743.937 148.068 742.292 148.463C740.712 148.792 739.691 149.187 739.231 149.648C738.638 150.174 738.276 151.063 738.144 152.314C738.013 153.499 737.947 154.453 737.947 155.177C737.947 155.572 737.947 156.099 737.947 156.757C738.013 157.35 738.079 157.975 738.144 158.633C738.21 159.291 738.309 159.917 738.441 160.509C738.572 161.102 738.737 161.595 738.934 161.99C739.198 162.385 740.152 162.747 741.798 163.077C743.444 163.34 745.254 163.57 747.229 163.768C749.204 163.899 751.08 163.998 752.857 164.064C754.634 164.13 755.819 164.163 756.412 164.163C756.675 164.163 757.037 164.163 757.498 164.163C758.025 164.163 758.584 164.163 759.177 164.163C759.769 164.097 760.296 164.031 760.756 163.965C761.283 163.899 761.678 163.801 761.941 163.669C762.402 163.406 762.797 162.879 763.126 162.089C763.521 161.233 763.817 160.312 764.015 159.324C764.212 158.337 764.344 157.382 764.41 156.461C764.542 155.473 764.607 154.749 764.607 154.289Z" fill="#FF2B2B"/>
<path d="M408.082 55.3002L408.004 67.3738C405.61 67.8382 403.241 68.2768 400.898 68.6895C398.556 69.1023 396.187 69.4635 393.792 69.7731C391.293 70.0827 388.794 70.3664 386.296 70.6244C383.797 70.8824 381.298 71.0114 378.799 71.0114C378.07 71.0114 377.003 70.9856 375.597 70.934C374.192 70.8824 372.734 70.7792 371.225 70.6244C369.715 70.4696 368.283 70.289 366.93 70.0827C365.576 69.8247 364.587 69.5151 363.962 69.1539C363.39 68.7927 362.843 68.38 362.322 67.9156C361.802 67.3996 361.333 66.8837 360.917 66.3677C359.824 65.0262 358.913 63.5557 358.184 61.9562C357.455 60.3567 356.882 58.7056 356.466 57.0029C356.049 55.3002 355.737 53.5718 355.529 51.8175C355.373 50.0632 355.294 48.3347 355.294 46.632C355.294 44.5682 355.399 42.4269 355.607 40.2083C355.867 37.9896 356.258 35.7968 356.778 33.6297C357.299 31.4626 357.975 29.373 358.808 27.3607C359.693 25.3485 360.761 23.491 362.01 21.7883C362.374 21.3239 362.843 20.7564 363.416 20.0856C363.988 19.4149 364.561 18.9247 365.134 18.6151C366.539 17.8412 368.101 17.1962 369.819 16.6802C371.589 16.1643 373.411 15.7773 375.285 15.5193C377.159 15.2097 379.007 15.0034 380.829 14.9002C382.704 14.7454 384.421 14.668 385.983 14.668C388.951 14.668 391.918 14.8486 394.885 15.2097C397.853 15.5193 400.742 16.0869 403.553 16.9124C403.449 18.3055 403.371 19.7244 403.319 21.1691C403.267 22.5622 403.241 23.9554 403.241 25.3485C403.241 28.7022 403.319 32.0818 403.475 35.4872C401.132 34.61 398.686 33.9909 396.135 33.6297C393.584 33.2169 391.059 33.0105 388.56 33.0105C388.04 33.0105 387.285 33.0621 386.296 33.1653C385.306 33.2169 384.187 33.3201 382.938 33.4749C381.688 33.5781 380.387 33.7329 379.033 33.9393C377.732 34.1457 376.508 34.4037 375.363 34.7132C374.218 35.0228 373.203 35.384 372.318 35.7968C371.485 36.2095 370.938 36.6481 370.678 37.1125C370.47 37.5252 370.287 38.1186 370.131 38.8925C370.027 39.6149 369.923 40.3888 369.819 41.2144C369.767 42.0399 369.715 42.8397 369.663 43.6136C369.663 44.3876 369.663 45.0067 369.663 45.4711C369.663 45.9355 369.715 46.8642 369.819 48.2573C369.923 49.6504 370.053 51.1467 370.209 52.7462C370.366 54.2941 370.548 55.713 370.756 57.0029C371.016 58.2928 371.277 59.041 371.537 59.2474C371.797 59.4022 372.214 59.5054 372.786 59.557C373.411 59.557 373.827 59.557 374.036 59.557C376.587 59.557 379.32 59.428 382.235 59.17C385.15 58.912 388.092 58.5766 391.059 58.1639C394.078 57.6995 397.046 57.2351 399.961 56.7707C402.876 56.2548 405.583 55.7646 408.082 55.3002Z" fill="black"/>
<path d="M473.521 48.1025C473.521 51.0435 473.442 53.9587 473.286 56.8481C473.182 59.7375 472.922 62.6528 472.505 65.5938C471.672 66.2129 470.84 66.8063 470.007 67.3738C469.174 67.8898 468.315 68.4574 467.43 69.0765C466.701 69.5409 465.894 70.0827 465.009 70.7018C464.176 71.2694 463.291 71.8369 462.354 72.4045C461.417 72.9721 460.454 73.4622 459.465 73.875C458.528 74.3394 457.643 74.6489 456.81 74.8037C456.029 75.0101 454.988 75.0875 453.686 75.0359C452.385 75.0359 451.291 75.0359 450.406 75.0359C448.22 75.1391 446.033 75.2165 443.847 75.2681C441.66 75.3197 439.422 75.3455 437.131 75.3455C436.09 75.3455 434.893 75.3455 433.539 75.3455C432.186 75.3971 430.962 75.2939 429.869 75.0359C429.557 74.9843 429.036 74.7263 428.307 74.262C427.578 73.8492 426.745 73.3332 425.808 72.7141C424.923 72.0433 423.986 71.3468 422.997 70.6244C422.008 69.8505 421.045 69.1281 420.108 68.4574C419.223 67.735 418.442 67.1159 417.765 66.5999C417.141 66.0323 416.698 65.6454 416.438 65.439C416.177 62.7043 415.969 59.9955 415.813 57.3125C415.709 54.5779 415.657 51.8433 415.657 49.1087C415.657 43.7942 415.839 38.5314 416.204 33.3201C416.62 28.1089 417.063 22.8718 417.531 17.609L433.617 17.222C433.097 20.5242 432.732 24.0327 432.524 27.7477C432.316 31.4111 432.212 34.9454 432.212 38.3508C432.212 38.9183 432.238 39.9245 432.29 41.3692C432.342 42.7623 432.446 44.2586 432.602 45.8581C432.758 47.4576 432.941 48.9281 433.149 50.2696C433.409 51.6111 433.721 52.4882 434.086 52.901C434.242 53.0558 434.632 53.2106 435.257 53.3654C435.934 53.4686 436.715 53.5718 437.6 53.675C438.537 53.7781 439.526 53.8555 440.567 53.9071C441.608 53.9587 442.597 54.0103 443.535 54.0619C444.472 54.0619 445.305 54.0877 446.033 54.1393C446.762 54.1393 447.283 54.1393 447.595 54.1393C447.855 54.1393 448.298 54.1393 448.923 54.1393C449.547 54.1393 450.172 54.1393 450.797 54.1393C451.474 54.0877 452.098 54.0361 452.671 53.9845C453.244 53.9329 453.634 53.8297 453.842 53.675C454.467 53.2622 454.935 52.2561 455.248 50.6566C455.56 49.0571 455.794 47.3028 455.951 45.3937C456.107 43.4846 456.185 41.653 456.185 39.8987C456.185 38.1444 456.185 36.8803 456.185 36.1063C456.185 34.9196 456.185 33.7329 456.185 32.5462C456.237 31.3595 456.263 30.1727 456.263 28.986C456.263 26.561 456.237 24.1875 456.185 21.8657C456.133 19.4923 456.055 17.093 455.951 14.668C457.044 14.7712 458.111 14.8486 459.152 14.9002C460.245 14.9002 461.339 14.9002 462.432 14.9002C463.733 14.9002 465.009 14.8744 466.258 14.8228C467.56 14.7712 468.835 14.6164 470.085 14.3584C471.178 19.8792 472.011 25.4775 472.583 31.1531C473.208 36.7771 473.521 42.4269 473.521 48.1025Z" fill="black"/>
<path d="M522.326 71.7079C516.131 72.1723 509.962 72.6109 503.819 73.0237C497.728 73.4364 491.585 73.8234 485.39 74.1846C485.13 64.3296 484.921 54.5521 484.765 44.8519C484.609 35.1002 484.323 25.2711 483.906 15.3645C487.394 15.3129 490.83 15.2097 494.214 15.055C497.598 14.9002 501.008 14.6938 504.444 14.4358C503.871 18.2539 503.324 22.0979 502.804 25.9676C502.335 29.7858 501.971 33.6297 501.711 37.4994C501.502 40.75 501.32 44.0006 501.164 47.2512C501.06 50.4502 500.956 53.675 500.852 56.9255C504.287 57.0287 507.671 57.0803 511.003 57.0803C514.387 57.0803 517.771 57.1319 521.155 57.2351L522.326 71.7079Z" fill="black"/>
<path d="M569.413 28.599V34.0167L554.342 34.7906C554.134 37.7832 553.978 40.75 553.874 43.691C553.77 46.632 553.718 49.573 553.718 52.514C553.718 56.1258 553.613 59.7375 553.405 63.3493C553.249 66.9095 553.041 70.4696 552.78 74.0298C550.906 74.133 549.032 74.2104 547.158 74.262C545.284 74.3652 543.41 74.4168 541.536 74.4168C540.859 74.4168 540.182 74.391 539.505 74.3394C538.881 74.3394 538.256 74.3394 537.631 74.3394C537.735 71.192 537.813 68.0704 537.866 64.9746C537.97 61.8272 538.022 58.7056 538.022 55.6098C538.022 52.514 537.944 49.4182 537.787 46.3224C537.631 43.1751 537.449 40.0277 537.241 36.8803C535.731 36.9319 534.195 36.9835 532.634 37.0351C531.124 37.0867 529.588 37.1125 528.026 37.1125C527.141 37.1125 526.256 37.1125 525.371 37.1125C524.538 37.1125 523.679 37.0867 522.794 37.0351C522.638 33.2169 522.534 29.4246 522.482 25.658C522.43 21.8915 522.378 18.1249 522.326 14.3584C530.135 14.5132 537.892 14.7454 545.596 15.055C553.301 15.3129 561.032 15.5451 568.789 15.7515C568.997 17.9702 569.153 20.1372 569.257 22.2527C569.361 24.3165 569.413 26.432 569.413 28.599Z" fill="black"/>
<path d="M636.491 48.1025C636.491 51.0435 636.413 53.9587 636.257 56.8481C636.153 59.7375 635.893 62.6528 635.476 65.5938C634.643 66.2129 633.81 66.8063 632.977 67.3738C632.144 67.8898 631.285 68.4574 630.4 69.0765C629.672 69.5409 628.865 70.0827 627.98 70.7018C627.147 71.2694 626.262 71.8369 625.325 72.4045C624.388 72.9721 623.425 73.4622 622.435 73.875C621.498 74.3394 620.613 74.6489 619.78 74.8037C619 75.0101 617.958 75.0875 616.657 75.0359C615.355 75.0359 614.262 75.0359 613.377 75.0359C611.191 75.1391 609.004 75.2165 606.818 75.2681C604.631 75.3197 602.393 75.3455 600.102 75.3455C599.061 75.3455 597.864 75.3455 596.51 75.3455C595.156 75.3971 593.933 75.2939 592.84 75.0359C592.528 74.9843 592.007 74.7263 591.278 74.262C590.549 73.8492 589.716 73.3332 588.779 72.7141C587.894 72.0433 586.957 71.3468 585.968 70.6244C584.979 69.8505 584.016 69.1281 583.079 68.4574C582.194 67.735 581.413 67.1159 580.736 66.5999C580.111 66.0323 579.669 65.6454 579.409 65.439C579.148 62.7043 578.94 59.9955 578.784 57.3125C578.68 54.5779 578.628 51.8433 578.628 49.1087C578.628 43.7942 578.81 38.5314 579.174 33.3201C579.591 28.1089 580.033 22.8718 580.502 17.609L596.588 17.222C596.068 20.5242 595.703 24.0327 595.495 27.7477C595.287 31.4111 595.183 34.9454 595.183 38.3508C595.183 38.9183 595.209 39.9245 595.261 41.3692C595.313 42.7623 595.417 44.2586 595.573 45.8581C595.729 47.4576 595.911 48.9281 596.12 50.2696C596.38 51.6111 596.692 52.4882 597.057 52.901C597.213 53.0558 597.603 53.2106 598.228 53.3654C598.905 53.4686 599.686 53.5718 600.571 53.675C601.508 53.7781 602.497 53.8555 603.538 53.9071C604.579 53.9587 605.568 54.0103 606.505 54.0619C607.442 54.0619 608.275 54.0877 609.004 54.1393C609.733 54.1393 610.254 54.1393 610.566 54.1393C610.826 54.1393 611.269 54.1393 611.893 54.1393C612.518 54.1393 613.143 54.1393 613.768 54.1393C614.444 54.0877 615.069 54.0361 615.642 53.9845C616.214 53.9329 616.605 53.8297 616.813 53.675C617.438 53.2622 617.906 52.2561 618.219 50.6566C618.531 49.0571 618.765 47.3028 618.921 45.3937C619.078 43.4846 619.156 41.653 619.156 39.8987C619.156 38.1444 619.156 36.8803 619.156 36.1063C619.156 34.9196 619.156 33.7329 619.156 32.5462C619.208 31.3595 619.234 30.1727 619.234 28.986C619.234 26.561 619.208 24.1875 619.156 21.8657C619.104 19.4923 619.026 17.093 618.921 14.668C620.015 14.7712 621.082 14.8486 622.123 14.9002C623.216 14.9002 624.31 14.9002 625.403 14.9002C626.704 14.9002 627.98 14.8744 629.229 14.8228C630.531 14.7712 631.806 14.6164 633.055 14.3584C634.149 19.8792 634.982 25.4775 635.554 31.1531C636.179 36.7771 636.491 42.4269 636.491 48.1025Z" fill="black"/>
<path d="M704.038 34.7132C704.038 38.9441 702.737 42.2721 700.134 44.6972C697.531 47.1222 694.095 48.4379 689.826 48.6443C694.98 57.1577 699.483 65.8775 703.335 74.8037L680.533 75.3455C680.117 71.1662 679.492 67.3222 678.659 63.8137C677.826 60.3051 676.655 56.616 675.145 52.7462C673.427 52.8494 671.709 52.9784 669.991 53.1332C668.326 53.288 666.66 53.417 664.994 53.5202L665.384 71.0888C662.417 71.2436 659.449 71.321 656.482 71.321C654.972 71.321 653.489 71.2952 652.031 71.2436C650.625 71.192 649.194 71.0888 647.736 70.934C648.101 66.1871 648.439 61.466 648.751 56.7707C649.064 52.0239 649.246 47.3028 649.298 42.6075C649.454 34.2489 649.688 25.8902 650.001 17.5316C654.894 17.2736 659.762 16.9898 664.603 16.6802C669.497 16.3707 674.39 16.2159 679.284 16.2159C680.533 16.2159 681.887 16.2417 683.345 16.2933C684.802 16.3449 686.26 16.4997 687.718 16.7576C689.227 16.964 690.659 17.2736 692.012 17.6864C693.418 18.0991 694.667 18.6409 695.761 19.3117C698.416 20.9628 700.446 23.1814 701.852 25.9676C703.309 28.7022 704.038 31.6174 704.038 34.7132ZM685.921 33.4749C685.921 33.0621 685.895 32.4946 685.843 31.7722C685.843 31.0499 685.791 30.3275 685.687 29.6052C685.583 28.8312 685.427 28.1347 685.219 27.5155C685.01 26.8448 684.724 26.3546 684.36 26.045C684.099 25.8386 683.657 25.6838 683.032 25.5806C682.408 25.4775 681.731 25.4001 681.002 25.3485C680.325 25.2453 679.648 25.1937 678.972 25.1937C678.347 25.1421 677.904 25.1163 677.644 25.1163C675.562 25.1163 673.505 25.2195 671.475 25.4259C669.497 25.6322 667.519 25.8902 665.54 26.1998L667.649 41.2144C668.794 41.4724 669.991 41.653 671.241 41.7562C672.49 41.8594 673.714 41.9109 674.911 41.9109C675.432 41.9109 676.186 41.8851 677.176 41.8336C678.217 41.782 679.258 41.6788 680.299 41.524C681.392 41.3692 682.381 41.1628 683.266 40.9048C684.204 40.5952 684.854 40.2083 685.219 39.7439C685.375 39.5375 685.505 39.1505 685.609 38.583C685.713 37.9638 685.765 37.3447 685.765 36.7255C685.817 36.0547 685.843 35.4098 685.843 34.7906C685.895 34.1715 685.921 33.7329 685.921 33.4749Z" fill="black"/>
<path d="M757.294 26.5094C752.193 26.7674 747.117 27.0511 742.067 27.3607C737.069 27.6187 732.02 27.9541 726.918 28.3669L726.762 34.481L746.909 33.3201C747.169 35.0744 747.351 36.8029 747.455 38.5056C747.611 40.2083 747.69 41.9367 747.69 43.691C747.69 44.4134 747.664 45.1615 747.611 45.9355C747.611 46.7094 747.611 47.4576 747.611 48.1799L728.87 51.5079L730.042 61.1049C733.998 60.8469 737.928 60.4857 741.833 60.0213C745.789 59.5054 749.772 59.0668 753.78 58.7056C754.145 61.2854 754.509 63.8911 754.874 66.5225C755.238 69.1023 755.759 71.6306 756.435 74.1072C749.043 74.0556 741.703 74.0556 734.414 74.1072C727.126 74.2104 719.786 74.262 712.394 74.262C712.55 68.2252 712.732 62.2142 712.94 56.229C713.148 50.2438 713.252 44.207 713.252 38.1186V36.6481C713.252 33.1395 713.2 29.6568 713.096 26.1998C712.992 22.6912 712.888 19.1569 712.784 15.5967C716.897 15.6483 720.983 15.6741 725.044 15.6741C729.157 15.6225 733.295 15.5967 737.46 15.5967C740.636 15.5967 743.785 15.6741 746.909 15.8289C750.084 15.9321 753.26 16.0611 756.435 16.2159L757.294 26.5094Z" fill="black"/>
<path d="M410.498 122.915C404.841 123.261 399.249 123.537 393.722 123.744C388.26 123.951 382.734 124.331 377.142 124.884L377.922 133.793L394.112 134.933L396.843 145.293C393.917 145.983 390.959 146.536 387.968 146.95C385.042 147.295 382.116 147.779 379.19 148.4C379.84 153.58 380.295 158.76 380.555 163.94C380.815 169.051 380.946 174.196 380.946 179.376L355.294 180.309C355.62 172.228 355.815 164.216 355.88 156.274C355.945 148.262 355.977 140.216 355.977 132.136V102.092C359.748 102.023 363.455 101.954 367.096 101.885C370.802 101.747 374.541 101.678 378.312 101.678C383.384 101.678 388.456 101.816 393.527 102.092C398.599 102.299 403.703 102.541 408.84 102.817C409.23 106.133 409.588 109.482 409.913 112.866C410.303 116.182 410.498 119.531 410.498 122.915Z" fill="black"/>
<path d="M476.04 114.42C469.668 114.766 463.328 115.146 457.021 115.56C450.779 115.905 444.472 116.354 438.1 116.907L437.905 125.091L463.068 123.537C463.393 125.885 463.621 128.199 463.751 130.478C463.946 132.757 464.043 135.071 464.043 137.419C464.043 138.386 464.011 139.387 463.946 140.423C463.946 141.459 463.946 142.461 463.946 143.428L440.538 147.882L442.001 160.729C446.943 160.383 451.852 159.9 456.728 159.278C461.67 158.588 466.644 158.001 471.651 157.517C472.106 160.97 472.561 164.458 473.016 167.98C473.472 171.434 474.122 174.818 474.967 178.133C465.734 178.064 456.566 178.064 447.463 178.133C438.36 178.271 429.192 178.34 419.959 178.34C420.154 170.26 420.381 162.214 420.641 154.202C420.901 146.19 421.031 138.11 421.031 129.96V127.992C421.031 123.295 420.966 118.633 420.836 114.006C420.706 109.31 420.576 104.579 420.446 99.8131C425.583 99.8822 430.687 99.9167 435.759 99.9167C440.896 99.8476 446.065 99.8131 451.267 99.8131C455.233 99.8131 459.167 99.9167 463.068 100.124C467.034 100.262 471.001 100.435 474.967 100.642L476.04 114.42Z" fill="black"/>
<path d="M558.357 159.278C558.357 162.593 557.61 165.287 556.114 167.359C554.619 169.362 552.505 170.985 549.775 172.228C547.499 173.264 544.638 174.093 541.192 174.714C537.746 175.267 534.169 175.681 530.463 175.958C526.757 176.165 523.116 176.303 519.539 176.372C515.963 176.441 512.972 176.476 510.566 176.476C506.47 176.476 502.406 176.406 498.375 176.268C494.409 176.13 490.377 175.923 486.281 175.647C486.476 168.602 486.281 161.626 485.696 154.72C490.572 154.858 495.416 154.996 500.228 155.134C505.105 155.203 509.981 155.307 514.858 155.445C516.744 155.514 518.629 155.583 520.515 155.652C522.465 155.721 524.416 155.756 526.367 155.756C526.692 155.756 527.18 155.756 527.83 155.756C528.48 155.756 529.163 155.721 529.878 155.652C530.593 155.583 531.243 155.48 531.829 155.342C532.479 155.203 532.966 154.996 533.292 154.72C533.552 154.444 533.714 154.064 533.779 153.58C533.844 153.028 533.877 152.544 533.877 152.13C533.877 151.37 533.779 150.472 533.584 149.436C533.389 148.331 533.096 147.434 532.706 146.743C532.641 146.674 532.414 146.605 532.024 146.536C531.699 146.467 531.308 146.432 530.853 146.432C530.398 146.363 529.975 146.329 529.585 146.329C529.195 146.259 528.968 146.225 528.903 146.225C524.741 145.88 520.58 145.638 516.418 145.5C512.322 145.362 508.193 145.12 504.032 144.775C502.146 144.567 500.195 144.36 498.18 144.153C496.229 143.946 494.409 143.566 492.718 143.013C491.092 142.53 489.694 141.459 488.524 139.802C487.419 138.075 486.508 136.141 485.793 134C485.143 131.79 484.655 129.58 484.33 127.37C484.07 125.16 483.94 123.295 483.94 121.776C483.94 119.289 484.168 116.941 484.623 114.731C485.078 112.452 485.793 110.346 486.768 108.412C487.809 106.478 489.109 104.786 490.67 103.335C492.23 101.816 494.148 100.573 496.424 99.6059C500.326 98.0174 504.487 96.9124 508.908 96.2908C513.395 95.6692 517.686 95.3584 521.783 95.3584C526.594 95.3584 531.341 95.6692 536.022 96.2908C540.704 96.9124 545.386 97.7066 550.067 98.6735C550.002 100.676 549.937 102.679 549.872 104.682C549.872 106.616 549.872 108.584 549.872 110.587C549.872 112.59 549.97 114.628 550.165 116.7C550.36 118.702 550.555 120.705 550.75 122.708C544.573 122.846 538.396 122.984 532.219 123.123C526.107 123.192 519.93 123.364 513.687 123.641C512.907 123.641 511.834 123.675 510.469 123.744C509.168 123.813 507.901 123.917 506.665 124.055C505.43 124.124 504.357 124.193 503.447 124.262C502.536 124.331 502.081 124.366 502.081 124.366C501.756 125.126 501.561 125.92 501.496 126.749C501.431 127.508 501.398 128.303 501.398 129.131C501.398 129.546 501.398 130.064 501.398 130.685C501.463 131.307 501.626 131.79 501.886 132.136C501.951 132.205 502.504 132.308 503.544 132.446C504.584 132.585 505.722 132.723 506.958 132.861C508.258 132.999 509.461 133.137 510.566 133.275C511.737 133.413 512.452 133.482 512.712 133.482C514.858 133.69 517.361 133.931 520.222 134.208C523.148 134.484 526.107 134.795 529.098 135.14C532.154 135.485 535.08 135.934 537.876 136.487C540.672 136.97 543.11 137.557 545.191 138.248C547.076 138.939 548.799 140.044 550.36 141.563C551.985 143.013 553.383 144.74 554.554 146.743C555.724 148.677 556.634 150.749 557.285 152.959C558 155.1 558.357 157.206 558.357 159.278Z" fill="black"/>
<path d="M624.192 117.218V124.469L605.368 125.505C605.108 129.511 604.913 133.482 604.783 137.419C604.653 141.356 604.588 145.293 604.588 149.229C604.588 154.064 604.458 158.898 604.198 163.733C604.003 168.498 603.743 173.264 603.418 178.029C601.077 178.168 598.736 178.271 596.395 178.34C594.054 178.478 591.714 178.547 589.373 178.547C588.528 178.547 587.682 178.513 586.837 178.444C586.057 178.444 585.276 178.444 584.496 178.444C584.626 174.231 584.724 170.052 584.789 165.909C584.919 161.696 584.984 157.517 584.984 153.373C584.984 149.229 584.886 145.085 584.691 140.941C584.496 136.728 584.269 132.515 584.009 128.303C582.123 128.372 580.205 128.441 578.254 128.51C576.368 128.579 574.45 128.613 572.5 128.613C571.394 128.613 570.289 128.613 569.184 128.613C568.143 128.613 567.07 128.579 565.965 128.51C565.77 123.399 565.64 118.323 565.575 113.281C565.51 108.239 565.445 103.197 565.38 98.1555C575.133 98.3627 584.821 98.6735 594.445 99.0879C604.068 99.4332 613.723 99.744 623.412 100.02C623.672 102.99 623.867 105.891 623.997 108.723C624.127 111.485 624.192 114.317 624.192 117.218Z" fill="black"/>
</svg>
