<svg xmlns="http://www.w3.org/2000/svg" xmlns:xlink="http://www.w3.org/1999/xlink" width="306" zoomAndPan="magnify" viewBox="44 152 306 66" height="66" preserveAspectRatio="xMidYMid meet" version="1.0"><defs><g/><clipPath id="761be1cb31"><path d="M 244 18 L 283 18 L 283 63.28125 L 244 63.28125 Z M 244 18 " clip-rule="nonzero"/></clipPath><clipPath id="6b9bc56e4f"><path d="M 62 19 L 102 19 L 102 56.644531 L 62 56.644531 Z M 62 19 " clip-rule="nonzero"/></clipPath><clipPath id="0d0ccd24fd"><path d="M 103 18.949219 L 143 18.949219 L 143 56.644531 L 103 56.644531 Z M 103 18.949219 " clip-rule="nonzero"/></clipPath><clipPath id="0e23ebd655"><path d="M 0.441406 1 L 39.800781 1 L 39.800781 38.644531 L 0.441406 38.644531 Z M 0.441406 1 " clip-rule="nonzero"/></clipPath><clipPath id="b24d8138ed"><rect x="0" width="40" y="0" height="39"/></clipPath><clipPath id="6ebfc30d55"><path d="M 283 0.878906 L 306 0.878906 L 306 19 L 283 19 Z M 283 0.878906 " clip-rule="nonzero"/></clipPath><clipPath id="0acb3d91ee"><rect x="0" width="23" y="0" height="19"/></clipPath><clipPath id="1a148e4135"><rect x="0" width="306" y="0" height="64"/></clipPath></defs><g transform="matrix(1, 0, 0, 1, 42, 152)"><g clip-path="url(#1a148e4135)"><g fill="#ee2c2c" fill-opacity="1"><g transform="translate(1.080579, 55.414109)"><g><path d="M 3.890625 0 C 4.003906 -2.894531 4.066406 -5.882812 4.078125 -8.96875 C 4.097656 -12.050781 4.109375 -15.210938 4.109375 -18.453125 C 4.109375 -21.617188 4.097656 -24.769531 4.078125 -27.90625 C 4.066406 -31.050781 4.019531 -34.070312 3.9375 -36.96875 L 15.375 -36.96875 L 14.28125 -29.203125 L 14.96875 -29.203125 C 15.84375 -31.597656 17.316406 -33.625 19.390625 -35.28125 C 21.472656 -36.9375 24.019531 -37.765625 27.03125 -37.765625 C 29.84375 -37.765625 32.15625 -36.953125 33.96875 -35.328125 C 35.78125 -33.710938 36.644531 -31.269531 36.5625 -28 L 37.203125 -28 C 38.035156 -30.320312 39.164062 -32.195312 40.59375 -33.625 C 42.019531 -35.050781 43.582031 -36.085938 45.28125 -36.734375 C 46.976562 -37.390625 48.644531 -37.71875 50.28125 -37.71875 C 53.019531 -37.71875 55.179688 -37.066406 56.765625 -35.765625 C 58.347656 -34.472656 59.488281 -32.726562 60.1875 -30.53125 C 60.894531 -28.34375 61.269531 -25.878906 61.3125 -23.140625 C 61.3125 -22.078125 61.320312 -20.675781 61.34375 -18.9375 C 61.363281 -17.207031 61.375 -15.34375 61.375 -13.34375 C 61.375 -11.34375 61.378906 -9.398438 61.390625 -7.515625 C 61.410156 -5.628906 61.421875 -4.007812 61.421875 -2.65625 C 61.421875 -1.300781 61.441406 -0.414062 61.484375 0 L 50.234375 0 C 50.265625 -0.988281 50.289062 -1.921875 50.3125 -2.796875 C 50.332031 -3.671875 50.347656 -4.71875 50.359375 -5.9375 C 50.378906 -7.15625 50.390625 -8.742188 50.390625 -10.703125 C 50.390625 -12.671875 50.390625 -15.253906 50.390625 -18.453125 C 50.390625 -19.640625 50.320312 -20.832031 50.1875 -22.03125 C 50.0625 -23.226562 49.804688 -24.335938 49.421875 -25.359375 C 49.046875 -26.390625 48.492188 -27.21875 47.765625 -27.84375 C 47.046875 -28.476562 46.09375 -28.796875 44.90625 -28.796875 C 44.226562 -28.796875 43.457031 -28.53125 42.59375 -28 C 41.738281 -27.46875 40.921875 -26.710938 40.140625 -25.734375 C 39.359375 -24.765625 38.757812 -23.613281 38.34375 -22.28125 C 38.269531 -21.21875 38.222656 -20.21875 38.203125 -19.28125 C 38.179688 -18.351562 38.171875 -17.453125 38.171875 -16.578125 C 38.210938 -13.910156 38.257812 -11.117188 38.3125 -8.203125 C 38.375 -5.285156 38.421875 -2.550781 38.453125 0 L 27.078125 0 C 27.117188 -0.53125 27.148438 -1.382812 27.171875 -2.5625 C 27.191406 -3.75 27.207031 -5.09375 27.21875 -6.59375 C 27.238281 -8.101562 27.25 -9.640625 27.25 -11.203125 C 27.25 -12.765625 27.25 -14.210938 27.25 -15.546875 C 27.25 -16.878906 27.25 -17.925781 27.25 -18.6875 C 27.21875 -22.382812 26.753906 -24.992188 25.859375 -26.515625 C 24.960938 -28.035156 23.675781 -28.796875 22 -28.796875 C 21.238281 -28.796875 20.378906 -28.472656 19.421875 -27.828125 C 18.472656 -27.179688 17.609375 -26.363281 16.828125 -25.375 C 16.046875 -24.382812 15.519531 -23.351562 15.25 -22.28125 C 15.175781 -21.9375 15.128906 -21.363281 15.109375 -20.5625 C 15.085938 -19.769531 15.078125 -19.050781 15.078125 -18.40625 C 15.078125 -15.394531 15.097656 -12.363281 15.140625 -9.3125 C 15.179688 -6.269531 15.257812 -3.164062 15.375 0 Z M 3.890625 0 "/></g></g></g><g fill="#ee2c2c" fill-opacity="1"><g transform="translate(64.101221, 55.414109)"><g/></g></g><g fill="#ee2c2c" fill-opacity="1"><g transform="translate(76.26988, 55.414109)"><g/></g></g><g fill="#ee2c2c" fill-opacity="1"><g transform="translate(88.438539, 55.414109)"><g/></g></g><g fill="#ee2c2c" fill-opacity="1"><g transform="translate(100.607198, 55.414109)"><g/></g></g><g fill="#ee2c2c" fill-opacity="1"><g transform="translate(112.775857, 55.414109)"><g/></g></g><g fill="#ee2c2c" fill-opacity="1"><g transform="translate(124.944516, 55.414109)"><g/></g></g><g fill="#ee2c2c" fill-opacity="1"><g transform="translate(137.123378, 55.414109)"><g><path d="M 18.34375 0.515625 C 14.71875 0.515625 11.984375 -0.09375 10.140625 -1.3125 C 8.296875 -2.53125 7.046875 -4.367188 6.390625 -6.828125 C 5.742188 -9.285156 5.421875 -12.320312 5.421875 -15.9375 L 5.421875 -29.140625 L 0.578125 -28.90625 L 0.578125 -37.078125 L 5.3125 -36.90625 C 5.3125 -38.238281 5.300781 -39.429688 5.28125 -40.484375 C 5.257812 -41.535156 5.25 -42.648438 5.25 -43.828125 C 7.15625 -43.828125 9.0625 -43.863281 10.96875 -43.9375 C 12.875 -44.019531 14.78125 -44.117188 16.6875 -44.234375 C 16.644531 -42.703125 16.625 -41.398438 16.625 -40.328125 C 16.625 -39.265625 16.609375 -38.125 16.578125 -36.90625 C 17.367188 -36.90625 18.351562 -36.914062 19.53125 -36.9375 C 20.71875 -36.957031 21.921875 -36.984375 23.140625 -37.015625 C 24.359375 -37.054688 25.40625 -37.078125 26.28125 -37.078125 C 26.25 -36.398438 26.203125 -35.734375 26.140625 -35.078125 C 26.085938 -34.429688 26.0625 -33.75 26.0625 -33.03125 C 26.0625 -32.382812 26.039062 -31.726562 26 -31.0625 C 25.957031 -30.394531 25.9375 -29.675781 25.9375 -28.90625 L 16.515625 -29.140625 C 16.515625 -27.734375 16.515625 -26.160156 16.515625 -24.421875 C 16.515625 -22.691406 16.515625 -20.988281 16.515625 -19.3125 C 16.515625 -17.632812 16.515625 -16.128906 16.515625 -14.796875 C 16.515625 -12.929688 16.675781 -11.3125 17 -9.9375 C 17.320312 -8.570312 18.054688 -7.890625 19.203125 -7.890625 C 20.304688 -7.890625 21.503906 -7.953125 22.796875 -8.078125 C 24.085938 -8.210938 25.175781 -8.359375 26.0625 -8.515625 C 26.0625 -7.898438 26.03125 -7.066406 25.96875 -6.015625 C 25.914062 -4.972656 25.867188 -3.925781 25.828125 -2.875 C 25.785156 -1.832031 25.765625 -0.96875 25.765625 -0.28125 C 24.703125 -0.0507812 23.519531 0.132812 22.21875 0.28125 C 20.925781 0.4375 19.632812 0.515625 18.34375 0.515625 Z M 18.34375 0.515625 "/></g></g></g><g fill="#ee2c2c" fill-opacity="1"><g transform="translate(163.117717, 55.414109)"><g><path d="M 27.828125 0 C 27.898438 -0.800781 28.003906 -1.765625 28.140625 -2.890625 C 28.273438 -4.015625 28.40625 -5.117188 28.53125 -6.203125 C 28.664062 -7.285156 28.789062 -8.132812 28.90625 -8.75 L 28.171875 -8.796875 C 26.878906 -5.867188 25.210938 -3.546875 23.171875 -1.828125 C 21.128906 -0.109375 18.359375 0.75 14.859375 0.75 C 10.703125 0.75 7.59375 -0.832031 5.53125 -4 C 3.476562 -7.164062 2.453125 -12.039062 2.453125 -18.625 C 2.453125 -24.644531 3.519531 -29.320312 5.65625 -32.65625 C 7.789062 -35.988281 10.988281 -37.65625 15.25 -37.65625 C 17.238281 -37.65625 19.144531 -37.3125 20.96875 -36.625 C 22.800781 -35.9375 24.375 -34.953125 25.6875 -33.671875 C 27 -32.398438 27.804688 -30.867188 28.109375 -29.078125 L 28.90625 -29.078125 C 28.832031 -29.847656 28.753906 -30.535156 28.671875 -31.140625 C 28.597656 -31.753906 28.523438 -32.476562 28.453125 -33.3125 C 28.378906 -34.144531 28.304688 -35.269531 28.234375 -36.6875 C 28.234375 -37.71875 28.222656 -38.800781 28.203125 -39.9375 C 28.179688 -41.082031 28.171875 -42.070312 28.171875 -42.90625 L 39.3125 -43.9375 C 39.238281 -40.78125 39.203125 -37.144531 39.203125 -33.03125 C 39.203125 -28.914062 39.203125 -24.648438 39.203125 -20.234375 C 39.203125 -16.304688 39.207031 -12.597656 39.21875 -9.109375 C 39.238281 -5.628906 39.289062 -2.59375 39.375 0 Z M 20.0625 -7.203125 C 21.882812 -7.203125 23.488281 -7.769531 24.875 -8.90625 C 26.269531 -10.050781 27.332031 -11.632812 28.0625 -13.65625 C 28.132812 -14.300781 28.207031 -15.1875 28.28125 -16.3125 C 28.363281 -17.4375 28.40625 -19.082031 28.40625 -21.25 C 27.945312 -23.15625 27.226562 -24.679688 26.25 -25.828125 C 25.28125 -26.972656 24.195312 -27.8125 23 -28.34375 C 21.800781 -28.875 20.59375 -29.140625 19.375 -29.140625 C 18.6875 -29.140625 18.054688 -29.023438 17.484375 -28.796875 C 16.910156 -28.566406 16.300781 -28.109375 15.65625 -27.421875 C 14.207031 -25.296875 13.484375 -22.363281 13.484375 -18.625 C 13.484375 -17.476562 13.585938 -16.25 13.796875 -14.9375 C 14.003906 -13.625 14.351562 -12.375 14.84375 -11.1875 C 15.34375 -10.007812 16.019531 -9.050781 16.875 -8.3125 C 17.738281 -7.570312 18.800781 -7.203125 20.0625 -7.203125 Z M 20.0625 -7.203125 "/></g></g></g><g fill="#ee2c2c" fill-opacity="1"><g transform="translate(204.880195, 55.414109)"><g><path d="M 13.65625 0.796875 C 11.445312 0.796875 9.503906 0.40625 7.828125 -0.375 C 6.148438 -1.15625 4.832031 -2.257812 3.875 -3.6875 C 2.925781 -5.113281 2.453125 -6.78125 2.453125 -8.6875 C 2.453125 -12.1875 3.914062 -14.878906 6.84375 -16.765625 C 9.78125 -18.648438 13.898438 -19.59375 19.203125 -19.59375 C 20.335938 -19.59375 21.539062 -19.5625 22.8125 -19.5 C 24.09375 -19.445312 25.5 -19.382812 27.03125 -19.3125 L 27.03125 -20.171875 C 27.03125 -21.878906 26.835938 -23.445312 26.453125 -24.875 C 26.078125 -26.3125 25.34375 -27.457031 24.25 -28.3125 C 23.164062 -29.164062 21.519531 -29.59375 19.3125 -29.59375 C 17.90625 -29.363281 16.722656 -28.851562 15.765625 -28.0625 C 14.816406 -26.457031 14.171875 -24.242188 13.828125 -21.421875 L 3.203125 -22.96875 C 3.773438 -27.925781 5.617188 -31.640625 8.734375 -34.109375 C 11.859375 -36.585938 16.015625 -37.828125 21.203125 -37.828125 C 25.273438 -37.828125 28.539062 -37.148438 31 -35.796875 C 33.457031 -34.441406 35.226562 -32.476562 36.3125 -29.90625 C 37.394531 -27.34375 37.9375 -24.210938 37.9375 -20.515625 C 37.9375 -18.191406 37.945312 -16.207031 37.96875 -14.5625 C 37.988281 -12.925781 38 -11.234375 38 -9.484375 C 38.039062 -7.503906 38.0625 -5.742188 38.0625 -4.203125 C 38.0625 -2.660156 38.0625 -1.257812 38.0625 0 L 26.90625 0 L 27.765625 -8.75 L 27.03125 -8.75 C 26.414062 -7.101562 25.523438 -5.546875 24.359375 -4.078125 C 23.203125 -2.617188 21.75 -1.441406 20 -0.546875 C 18.25 0.347656 16.132812 0.796875 13.65625 0.796875 Z M 17.59375 -7.421875 C 18.851562 -7.421875 20.015625 -7.664062 21.078125 -8.15625 C 22.148438 -8.65625 23.09375 -9.25 23.90625 -9.9375 C 24.726562 -10.625 25.414062 -11.300781 25.96875 -11.96875 C 26.519531 -12.632812 26.890625 -13.140625 27.078125 -13.484375 L 27.078125 -15.25 C 26.546875 -15.289062 25.859375 -15.320312 25.015625 -15.34375 C 24.179688 -15.363281 23.5 -15.375 22.96875 -15.375 C 21.519531 -15.375 20.035156 -15.273438 18.515625 -15.078125 C 16.992188 -14.890625 15.726562 -14.488281 14.71875 -13.875 C 13.707031 -13.269531 13.203125 -12.300781 13.203125 -10.96875 C 13.203125 -9.675781 13.609375 -8.757812 14.421875 -8.21875 C 15.242188 -7.6875 16.300781 -7.421875 17.59375 -7.421875 Z M 17.59375 -7.421875 "/></g></g></g><g clip-path="url(#761be1cb31)"><g fill="#ee2c2c" fill-opacity="1"><g transform="translate(244.700225, 55.414109)"><g><path d="M 14.453125 7.65625 C 13.535156 7.65625 12.429688 7.625 11.140625 7.5625 C 9.847656 7.507812 8.59375 7.425781 7.375 7.3125 C 6.15625 7.195312 5.164062 7.0625 4.40625 6.90625 L 5.375 -1.546875 L 18 -1.546875 C 18.300781 -2.648438 18.59375 -3.742188 18.875 -4.828125 C 19.164062 -5.910156 19.367188 -6.644531 19.484375 -7.03125 L 18.6875 -7.03125 C 18.113281 -6.457031 17.242188 -6.046875 16.078125 -5.796875 C 14.921875 -5.546875 13.65625 -5.421875 12.28125 -5.421875 L 8.859375 -5.421875 C 8.359375 -7.328125 7.726562 -9.601562 6.96875 -12.25 C 6.207031 -14.90625 5.40625 -17.707031 4.5625 -20.65625 C 3.726562 -23.601562 2.921875 -26.492188 2.140625 -29.328125 C 1.359375 -32.171875 0.679688 -34.71875 0.109375 -36.96875 L 11.65625 -36.96875 C 12.113281 -35.03125 12.632812 -32.894531 13.21875 -30.5625 C 13.8125 -28.238281 14.429688 -25.859375 15.078125 -23.421875 C 15.734375 -20.984375 16.351562 -18.628906 16.9375 -16.359375 C 17.53125 -14.097656 18.054688 -12.070312 18.515625 -10.28125 L 19.3125 -10.28125 C 19.726562 -12.070312 20.203125 -14.09375 20.734375 -16.34375 C 21.273438 -18.59375 21.835938 -20.925781 22.421875 -23.34375 C 23.015625 -25.757812 23.585938 -28.140625 24.140625 -30.484375 C 24.691406 -32.828125 25.195312 -34.988281 25.65625 -36.96875 L 37.3125 -36.96875 C 36.550781 -33.582031 35.757812 -30.269531 34.9375 -27.03125 C 34.125 -23.789062 33.25 -20.40625 32.3125 -16.875 C 31.375 -13.351562 30.375 -9.5 29.3125 -5.3125 C 28.550781 -1.925781 27.617188 0.707031 26.515625 2.59375 C 25.410156 4.476562 23.914062 5.789062 22.03125 6.53125 C 20.144531 7.28125 17.617188 7.65625 14.453125 7.65625 Z M 14.453125 7.65625 "/></g></g></g></g><g clip-path="url(#6b9bc56e4f)"><path fill="#ee2c2c" d="M 100.792969 43.320312 C 100.054688 42.730469 99.082031 42.988281 99.082031 42.988281 C 99.082031 42.988281 98.21875 43.277344 97.941406 43.824219 L 97.089844 45.425781 C 97.089844 45.425781 95.496094 48.042969 94.148438 49.191406 C 94.148438 49.191406 91.21875 51.988281 87.769531 51.917969 C 87.769531 51.917969 82.683594 53.019531 79.734375 48.683594 C 76.785156 44.359375 77.433594 38.070312 77.433594 38.070312 L 101.179688 38.070312 C 101.179688 38.070312 102.828125 19.144531 84.59375 19.046875 C 66.355469 18.949219 66.378906 34.382812 66.378906 34.382812 C 66.378906 34.382812 65.042969 33.398438 62.445312 35.128906 C 62.445312 35.128906 61.800781 35.566406 62.507812 36.050781 C 62.507812 36.050781 63.136719 36.472656 63.871094 36.589844 C 63.871094 36.589844 65.285156 37.101562 66.085938 39.394531 C 66.085938 39.394531 66.351562 41.859375 66.882812 44.121094 C 67.417969 46.386719 69.964844 49.902344 70.53125 50.601562 L 73.839844 53.324219 C 73.839844 53.324219 76.394531 55.046875 79.0625 55.710938 C 79.0625 55.710938 81.449219 56.46875 83.652344 56.488281 C 83.652344 56.488281 88.019531 56.746094 90.347656 55.769531 C 92.671875 54.792969 93.117188 54.589844 93.117188 54.589844 L 95.710938 52.882812 C 95.710938 52.882812 96.605469 52.214844 98.6875 49.425781 C 100.765625 46.636719 101.007812 45.21875 101.007812 45.21875 C 101.007812 45.21875 101.535156 43.910156 100.792969 43.320312 Z M 81.492188 23.539062 C 84.578125 21.558594 87.886719 23.539062 87.886719 23.539062 C 91.476562 26.359375 91.300781 31.605469 91.300781 31.605469 C 91.328125 34.753906 88.769531 34.238281 88.769531 34.238281 L 77.441406 34.238281 C 78.035156 31.390625 78.402344 25.519531 81.492188 23.539062 Z M 81.492188 23.539062 " fill-opacity="1" fill-rule="nonzero"/></g><g clip-path="url(#0d0ccd24fd)"><g transform="matrix(1, 0, 0, 1, 103, 18)"><g clip-path="url(#b24d8138ed)"><g clip-path="url(#0e23ebd655)"><path fill="#ee2c2c" d="M 1.027344 25.320312 C 1.765625 24.730469 2.734375 24.988281 2.734375 24.988281 C 2.734375 24.988281 3.601562 25.277344 3.878906 25.824219 L 4.730469 27.425781 C 4.730469 27.425781 6.324219 30.042969 7.671875 31.191406 C 7.671875 31.191406 10.601562 33.988281 14.050781 33.917969 C 14.050781 33.917969 19.136719 35.019531 22.085938 30.683594 C 25.035156 26.359375 24.386719 20.070312 24.386719 20.070312 L 0.636719 20.070312 C 0.636719 20.070312 -1.007812 1.144531 17.226562 1.046875 C 35.464844 0.949219 35.441406 16.382812 35.441406 16.382812 C 35.441406 16.382812 36.777344 15.398438 39.375 17.128906 C 39.375 17.128906 40.019531 17.566406 39.3125 18.050781 C 39.3125 18.050781 38.683594 18.472656 37.949219 18.589844 C 37.949219 18.589844 36.535156 19.101562 35.734375 21.394531 C 35.734375 21.394531 35.46875 23.859375 34.9375 26.121094 C 34.402344 28.386719 31.855469 31.902344 31.289062 32.601562 L 27.980469 35.324219 C 27.980469 35.324219 25.425781 37.046875 22.757812 37.710938 C 22.757812 37.710938 20.371094 38.46875 18.167969 38.488281 C 18.167969 38.488281 13.800781 38.746094 11.472656 37.769531 C 9.148438 36.792969 8.703125 36.589844 8.703125 36.589844 L 6.109375 34.882812 C 6.109375 34.882812 5.214844 34.214844 3.132812 31.425781 C 1.054688 28.636719 0.8125 27.21875 0.8125 27.21875 C 0.8125 27.21875 0.285156 25.910156 1.027344 25.320312 Z M 20.328125 5.539062 C 17.242188 3.558594 13.929688 5.539062 13.929688 5.539062 C 10.34375 8.359375 10.519531 13.605469 10.519531 13.605469 C 10.492188 16.753906 13.050781 16.238281 13.050781 16.238281 L 24.378906 16.238281 C 23.785156 13.390625 23.417969 7.519531 20.328125 5.539062 Z M 20.328125 5.539062 " fill-opacity="1" fill-rule="nonzero"/></g></g></g></g><g clip-path="url(#6ebfc30d55)"><g transform="matrix(1, 0, 0, 1, 283, 0)"><g clip-path="url(#0acb3d91ee)"><g fill="#ee2c2c" fill-opacity="1"><g transform="translate(0.852747, 14.463356)"><g><path d="M 8.5625 -9.46875 L 5.15625 -9.46875 L 5.15625 0 L 3.765625 0 L 3.765625 -9.46875 L 0.359375 -9.46875 L 0.359375 -10.625 L 8.5625 -10.625 Z M 8.5625 -9.46875 "/></g></g><g transform="translate(9.764511, 14.463356)"><g><path d="M 3.046875 -10.625 L 6.515625 -1.953125 L 9.984375 -10.625 L 11.796875 -10.625 L 11.796875 0 L 10.40625 0 L 10.40625 -4.140625 L 10.53125 -8.59375 L 7.046875 0 L 5.96875 0 L 2.5 -8.578125 L 2.640625 -4.140625 L 2.640625 0 L 1.234375 0 L 1.234375 -10.625 Z M 3.046875 -10.625 "/></g></g></g></g></g></g></g></g></svg>